<?xml version="1.0" encoding="iso-8859-1"?>
<svg version="1.1" id="logo-veruscript" xmlns="http://www.w3.org/2000/svg" xmlns:xlink="http://www.w3.org/1999/xlink" x="0px" y="0px" viewBox="0 0 325.8 241.7" style="enable-background:new 0 0 325.8 241.7;" xml:space="preserve">

  
  <!--logo shapes-->
  <path id="first" class="st0" d="M34.1,75.1c-1.4-1-3.4-0.5-4.1,1.2l-22.3,50c-0.7,1.6,0.2,3.5,1.9,3.9L137,159.5c1.4,0.3,2.8-0.5,3.3-1.9l1.5-4.7 	c0.4-1.2,0-2.4-1.1-3.1L34.1,75.1z">
  </path>
  <path id="third" class="st0" d="M163.4,83.2l8.6,29.7c0.3,0.8,1.5,0.8,1.7-0.1l19.9-102.1c0.3-1.7-1-3.3-2.7-3.3H136c-1.8,0-3.1,1.6-2.7,3.3l19.8,102.2
	c0.2,0.9,1.4,0.9,1.7,0.1L163.4,83.2L163.4,83.2z">
  </path>
  <path id="fourth" class="st0" d="M273,50.9c1.2-1.3,1-3.3-0.5-4.3l-45.9-29.8c-1.5-1-3.5-0.3-4.1,1.3L178,128.2c-0.2,0.6-0.3,1.3-0.1,1.9l3.3,10
	c0.7,2,3.2,2.6,4.7,1.1L273,50.9z">
  </path>
  <path id="fifth" class="st0" d="M319.1,126.3l-22.3-50c-0.7-1.6-2.7-2.2-4.2-1.2l-106.6,74.6c-1,0.7-1.4,2-1.1,3.1l1.6,4.8c0.4,1.4,1.9,2.2,3.3,1.9
	l127.3-29.4C318.9,129.7,319.8,127.9,319.1,126.3z">
  </path>
  <path id="second" class="st0" d="M104.2,18.1c-0.7-1.6-2.6-2.2-4.1-1.3L54.2,46.7c-1.5,1-1.7,3-0.5,4.3l87.2,90.3c1.5,1.5,4,0.9,4.6-1.1l3.2-10
	c0.2-0.6,0.2-1.3-0.1-1.9L104.2,18.1z">
  <path>
</svg>
