<?xml version="1.0" encoding="iso-8859-1"?>
<!-- Generator: Adobe Illustrator 19.1.0, SVG Export Plug-In . SVG Version: 6.00 Build 0)  -->
<svg version="1.1" id="Layer_1" xmlns="http://www.w3.org/2000/svg" xmlns:xlink="http://www.w3.org/1999/xlink" x="0px" y="0px"
	 viewBox="0 0 149.333 110.333" style="enable-background:new 0 0 149.333 110.333;" xml:space="preserve">
<style type="text/css">
	.st0{stroke:#000000;stroke-width:0.2835;stroke-miterlimit:10;}
</style>
<g>
	<g>
		<path class="st0" d="M11.712,88.1L8.46,108.225H5.265L2.014,88.1h2.663l2.186,15.36L9.049,88.1H11.712z"/>
		<path class="st0" d="M18.888,108.225V88.1h6.671v2.438h-3.98v6.11h3.532v2.438h-3.532v6.699h3.98v2.438H18.888z"/>
		<path class="st0" d="M33.126,88.1h5.27c2.056,0,3.083,1.149,3.083,3.447v4.962c0,1.756-0.533,2.868-1.598,3.335l1.878,8.381
			h-2.551l-1.766-8.129h-1.626v8.129h-2.691V88.1z M35.817,97.798h1.766c0.803,0,1.205-0.486,1.205-1.458v-4.345
			c0-0.971-0.402-1.457-1.205-1.457h-1.766V97.798z"/>
		<path class="st0" d="M58.101,88.1v16.313c0,2.541-1.084,3.812-3.251,3.812h-2.271c-2.149,0-3.224-1.279-3.224-3.84V88.1h2.691
			v16.369c0,0.879,0.393,1.317,1.177,1.317h1.093c0.729,0,1.093-0.438,1.093-1.317V88.1H58.101z"/>
		<path class="st0" d="M71.415,93.509v-1.766c0-0.803-0.393-1.205-1.177-1.205h-0.42c-0.767,0-1.149,0.402-1.149,1.205v3.336
			c0,0.374,0.075,0.626,0.224,0.757s0.393,0.299,0.729,0.504l2.551,1.374c0.561,0.317,0.958,0.565,1.191,0.742
			c0.233,0.178,0.416,0.393,0.546,0.646c0.13,0.252,0.196,0.733,0.196,1.443v4.288c0,2.262-1.084,3.392-3.251,3.392h-1.654
			c-2.149,0-3.224-1.233-3.224-3.7v-1.009h2.691v1.094c0,0.784,0.402,1.177,1.206,1.177h0.476c0.71,0,1.065-0.393,1.065-1.177v-3.42
			c0-0.374-0.075-0.626-0.224-0.757c-0.15-0.131-0.393-0.299-0.729-0.505l-2.551-1.43c-0.561-0.298-0.967-0.551-1.219-0.757
			c-0.252-0.205-0.435-0.472-0.546-0.799c-0.112-0.326-0.168-0.752-0.168-1.275v-4.12c0-2.298,1.074-3.447,3.224-3.447h1.682
			c2.149,0,3.224,1.149,3.224,3.447v1.962H71.415z"/>
		<path class="st0" d="M90.027,103.516v1.29c0,2.279-1.075,3.419-3.224,3.419h-1.738c-2.149,0-3.224-1.14-3.224-3.419V91.519
			c0-2.279,1.074-3.419,3.224-3.419h1.738c2.148,0,3.224,1.14,3.224,3.419v2.271h-2.691v-2.074c0-0.784-0.402-1.177-1.205-1.177
			h-0.533c-0.71,0-1.065,0.393-1.065,1.177v12.895c0,0.784,0.355,1.177,1.065,1.177h0.672c0.71,0,1.065-0.393,1.065-1.177v-1.094
			H90.027z"/>
		<path class="st0" d="M97.763,88.1h5.27c2.056,0,3.084,1.149,3.084,3.447v4.962c0,1.756-0.533,2.868-1.598,3.335l1.878,8.381
			h-2.551l-1.766-8.129h-1.626v8.129h-2.691V88.1z M100.454,97.798h1.766c0.804,0,1.205-0.486,1.205-1.458v-4.345
			c0-0.971-0.401-1.457-1.205-1.457h-1.766V97.798z"/>
		<path class="st0" d="M113.992,108.225V88.1h2.69v20.125H113.992z"/>
		<path class="st0" d="M124.84,88.1h4.905c2.167,0,3.251,1.149,3.251,3.447v5.971c0,2.28-1.074,3.42-3.223,3.42h-2.243v7.287h-2.69
			V88.1z M127.53,98.498h1.71c0.71,0,1.065-0.392,1.065-1.177v-5.606c0-0.784-0.402-1.177-1.205-1.177h-1.57V98.498z"/>
		<path class="st0" d="M145.049,90.538v17.687h-2.691V90.538h-2.578V88.1h7.849v2.438H145.049z"/>
	</g>
	<g>
		<g>
			<path d="M74.794,37.046l4.014,13.853c0.129,0.397,0.702,0.362,0.781-0.048l9.273-47.669c0.156-0.803-0.459-1.548-1.276-1.548
				H62.025c-0.817,0-1.432,0.745-1.276,1.548l9.26,47.699c0.079,0.408,0.65,0.443,0.778,0.048L74.794,37.046L74.794,37.046z"/>
			<path d="M125.985,21.981c0.57-0.59,0.46-1.553-0.228-1.999l-21.43-13.917c-0.687-0.446-1.611-0.155-1.919,0.605L81.634,58.054
				c-0.115,0.284-0.126,0.599-0.031,0.89l1.518,4.661c0.304,0.933,1.491,1.206,2.173,0.501L125.985,21.981z"/>
			<path d="M147.489,57.15l-10.393-23.342c-0.334-0.749-1.267-1.008-1.939-0.538L85.381,68.105
				c-0.469,0.328-0.668,0.924-0.491,1.468l0.726,2.229c0.209,0.64,0.872,1.015,1.528,0.864l59.446-13.715
				C147.39,58.767,147.822,57.899,147.489,57.15z"/>
			<path d="M47.174,6.669c-0.307-0.759-1.231-1.051-1.918-0.604L23.824,19.983c-0.687,0.446-0.797,1.409-0.228,1.998l40.714,42.148
				c0.68,0.704,1.866,0.431,2.169-0.5l1.514-4.652c0.095-0.291,0.084-0.605-0.031-0.889L47.174,6.669z"/>
			<path d="M14.425,33.268c-0.671-0.47-1.604-0.211-1.937,0.537L2.094,57.152C1.76,57.9,2.192,58.766,2.991,58.951l59.47,13.721
				c0.659,0.152,1.325-0.225,1.534-0.868l0.721-2.215c0.177-0.544-0.022-1.14-0.491-1.469L14.425,33.268z"/>
		</g>
	</g>
</g>
</svg>
