<?xml version="1.0" encoding="iso-8859-1"?>
<svg version="1.1" id="Layer_1" xmlns="http://www.w3.org/2000/svg" xmlns:xlink="http://www.w3.org/1999/xlink" x="0px" y="0px"
	 viewBox="0 0 205.75 36.39" style="enable-background:new 0 0 205.75 36.39;" xml:space="preserve">
<style type="text/css">
	.st0{fill:#FFFFFF;stroke:#FFFFFF;stroke-width:0.2835;stroke-miterlimit:10;}
	.st1{fill:#FFFFFF;}
</style>
<g>
	<g>
		<path class="st0" d="M93.846,9.651l-2.608,16.144h-2.563L86.067,9.651h2.136l1.754,12.322L91.71,9.651H93.846z"/>
		<path class="st0" d="M99.603,25.795V9.651h5.351v1.956h-3.193v4.902h2.833v1.956h-2.833v5.374h3.193v1.956H99.603z"/>
		<path class="st0" d="M111.025,9.651h4.227c1.649,0,2.474,0.922,2.474,2.765v3.98c0,1.409-0.428,2.301-1.282,2.675l1.506,6.724
			h-2.046l-1.417-6.521h-1.304v6.521h-2.158V9.651z M113.183,17.431h1.417c0.644,0,0.967-0.39,0.967-1.169v-3.485
			c0-0.779-0.323-1.169-0.967-1.169h-1.417V17.431z"/>
		<path class="st0" d="M131.058,9.651v13.086c0,2.039-0.869,3.058-2.608,3.058h-1.821c-1.724,0-2.586-1.026-2.586-3.08V9.651h2.158
			v13.131c0,0.705,0.315,1.057,0.945,1.057h0.877c0.584,0,0.877-0.352,0.877-1.057V9.651H131.058z"/>
		<path class="st0" d="M141.739,13.99v-1.417c0-0.644-0.315-0.967-0.945-0.967h-0.337c-0.615,0-0.922,0.323-0.922,0.967v2.676
			c0,0.3,0.059,0.502,0.18,0.607c0.12,0.105,0.315,0.24,0.584,0.405l2.046,1.102c0.45,0.255,0.768,0.454,0.956,0.596
			c0.187,0.142,0.333,0.315,0.439,0.517c0.105,0.202,0.157,0.589,0.157,1.157v3.44c0,1.814-0.87,2.721-2.609,2.721h-1.326
			c-1.724,0-2.586-0.989-2.586-2.968v-0.809h2.159v0.877c0,0.63,0.322,0.945,0.966,0.945h0.382c0.57,0,0.855-0.315,0.855-0.945
			v-2.743c0-0.3-0.06-0.502-0.18-0.607c-0.12-0.105-0.315-0.239-0.585-0.405l-2.046-1.146c-0.45-0.24-0.776-0.442-0.978-0.607
			c-0.202-0.165-0.348-0.378-0.439-0.641c-0.09-0.262-0.134-0.603-0.134-1.023v-3.305c0-1.844,0.861-2.765,2.586-2.765h1.349
			c1.724,0,2.586,0.922,2.586,2.765v1.574H141.739z"/>
		<path class="st0" d="M156.669,22.017v1.034c0,1.829-0.863,2.743-2.586,2.743h-1.394c-1.724,0-2.586-0.914-2.586-2.743V12.394
			c0-1.829,0.862-2.743,2.586-2.743h1.394c1.724,0,2.586,0.915,2.586,2.743v1.821h-2.159v-1.664c0-0.63-0.323-0.945-0.967-0.945
			h-0.428c-0.57,0-0.854,0.315-0.854,0.945v10.343c0,0.63,0.284,0.945,0.854,0.945h0.54c0.57,0,0.855-0.315,0.855-0.945v-0.877
			H156.669z"/>
		<path class="st0" d="M162.875,9.651h4.227c1.649,0,2.474,0.922,2.474,2.765v3.98c0,1.409-0.428,2.301-1.282,2.675l1.506,6.724
			h-2.046l-1.417-6.521h-1.304v6.521h-2.158V9.651z M165.033,17.431h1.417c0.644,0,0.967-0.39,0.967-1.169v-3.485
			c0-0.779-0.323-1.169-0.967-1.169h-1.417V17.431z"/>
		<path class="st0" d="M175.894,25.795V9.651h2.158v16.144H175.894z"/>
		<path class="st0" d="M184.595,9.651h3.934c1.739,0,2.609,0.922,2.609,2.765v4.789c0,1.829-0.862,2.743-2.586,2.743h-1.799v5.847
			h-2.158V9.651z M186.753,17.993h1.372c0.57,0,0.855-0.315,0.855-0.945v-4.497c0-0.63-0.322-0.945-0.967-0.945h-1.259V17.993z"/>
		<path class="st0" d="M200.806,11.607v14.188h-2.159V11.607h-2.068V9.651h6.296v1.956H200.806z"/>
	</g>
	<g>
		<g>
			<path class="st1" d="M36.109,18.139l1.832,6.323c0.059,0.181,0.32,0.165,0.357-0.022L42.53,2.682
				c0.071-0.366-0.209-0.707-0.582-0.707H30.281c-0.373,0-0.654,0.34-0.583,0.707l4.226,21.771c0.036,0.186,0.296,0.202,0.355,0.022
				L36.109,18.139L36.109,18.139z"/>
			<path class="st1" d="M59.474,11.263c0.26-0.269,0.21-0.709-0.104-0.912l-9.781-6.352c-0.314-0.204-0.735-0.071-0.876,0.276
				l-9.482,23.453c-0.052,0.13-0.057,0.273-0.014,0.406l0.693,2.127c0.139,0.426,0.681,0.551,0.992,0.229L59.474,11.263z"/>
			<path class="st1" d="M69.289,27.315l-4.743-10.654c-0.152-0.342-0.579-0.46-0.885-0.246l-22.719,15.9
				c-0.214,0.15-0.305,0.422-0.224,0.67l0.331,1.017c0.095,0.292,0.398,0.463,0.697,0.394l27.133-6.26
				C69.244,28.053,69.441,27.657,69.289,27.315z"/>
			<path class="st1" d="M23.502,4.274c-0.14-0.347-0.562-0.479-0.875-0.276l-9.782,6.352c-0.314,0.204-0.364,0.643-0.104,0.912
				L31.324,30.5c0.311,0.322,0.852,0.197,0.99-0.228l0.691-2.123c0.043-0.133,0.038-0.276-0.014-0.406L23.502,4.274z"/>
			<path class="st1" d="M8.555,16.414C8.249,16.2,7.823,16.318,7.671,16.66L2.927,27.315c-0.152,0.342,0.045,0.737,0.409,0.821
				l27.144,6.262c0.301,0.069,0.605-0.102,0.7-0.396l0.329-1.011c0.081-0.248-0.01-0.521-0.224-0.67L8.555,16.414z"/>
		</g>
	</g>
</g>
</svg>
