<?xml version="1.0" encoding="iso-8859-1"?>
<!-- Generator: Adobe Illustrator 19.1.0, SVG Export Plug-In . SVG Version: 6.00 Build 0)  -->
<svg version="1.1" id="step-1-author" xmlns="http://www.w3.org/2000/svg" xmlns:xlink="http://www.w3.org/1999/xlink" x="0px"
	 y="0px" viewBox="0 0 227.835 173.196" style="enable-background:new 0 0 227.835 173.196;" xml:space="preserve">
<style type="text/css">
	.st0{fill:none;stroke:#00ACD5;stroke-width:2.126;stroke-miterlimit:10;}
	.st1{fill:none;stroke:#00ACD5;stroke-width:2.126;stroke-linecap:round;stroke-miterlimit:10;}
	.st2{fill:#00ACD5;}
	.st3{fill:#FFFFFF;}
</style>
<g id="Step_TWO_2_">
	<g>
		<path class="st0" d="M118.167,51.014c0,0-0.828,40.899-18.054,81.799"/>
		<g>
			<line class="st1" x1="93.84" y1="118.71" x2="99.977" y2="132.813"/>
			<line class="st1" x1="99.977" y1="132.813" x2="113.431" y2="126.958"/>
		</g>
	</g>
	<g id="NUME_24_">
		<circle class="st2" cx="118.995" cy="55.383" r="15"/>
		<g>
			<path class="st3" d="M121.877,61.138h-7.484v-1.574l2.688-2.719c0.795-0.814,1.316-1.381,1.561-1.695s0.42-0.605,0.527-0.875
				c0.107-0.268,0.16-0.547,0.16-0.834c0-0.43-0.117-0.75-0.355-0.961c-0.236-0.209-0.553-0.314-0.947-0.314
				c-0.416,0-0.818,0.096-1.209,0.285c-0.391,0.191-0.799,0.463-1.223,0.814l-1.23-1.459c0.527-0.449,0.963-0.766,1.311-0.951
				c0.346-0.186,0.725-0.328,1.135-0.43c0.41-0.1,0.869-0.148,1.377-0.148c0.67,0,1.26,0.121,1.773,0.365
				c0.512,0.244,0.91,0.586,1.193,1.025s0.424,0.943,0.424,1.51c0,0.492-0.086,0.955-0.26,1.387
				c-0.172,0.432-0.441,0.875-0.805,1.33c-0.363,0.453-1.006,1.102-1.924,1.941l-1.377,1.295v0.104h4.666V61.138z"/>
		</g>
	</g>
</g>
</svg>
