<?xml version="1.0" encoding="iso-8859-1"?>
<!-- Generator: Adobe Illustrator 19.1.0, SVG Export Plug-In . SVG Version: 6.00 Build 0)  -->
<svg version="1.1" id="step-1-author" xmlns="http://www.w3.org/2000/svg" xmlns:xlink="http://www.w3.org/1999/xlink" x="0px"
	 y="0px" viewBox="0 0 383.5 197" style="enable-background:new 0 0 383.5 197;" xml:space="preserve">
<style type="text/css">
	.st0{clip-path:url(#SVGID_2_);}
	.st1{fill:#00ACD5;}
	.st2{fill:#0988A6;}
	.st3{fill:#DDDBC9;}
	.st4{fill:#C0BEAE;}
	.st5{fill:#0F303F;}
	.st6{fill:#F2EFDC;}
	.st7{fill:#FFDA01;}
	.st8{display:none;fill:#00ACD5;}
	.st9{fill:#FFFFFF;}
	.st10{opacity:0.4;fill:#2C5653;}
	.st11{fill:#A0D5D1;}
	.st12{opacity:0.5;fill:#A0D5D1;}
	.st13{opacity:0.25;fill:#A0D5D1;}
	.st14{opacity:0.7;fill:#2D2A27;}
	.st15{fill:#6D3F3C;}
	.st16{fill:#D1D3D4;}
	.st17{fill:#414142;}
	.st18{fill:#BCBEC0;}
	.st19{fill:#939599;}
	.st20{fill:#A7A9AC;}
	.st21{fill:#595A5C;}
	.st22{fill:#FFE565;}
	.st23{fill:#FFD702;}
	.st24{fill:#FFEC97;}
</style>
<g id="Publishing">
	<g id="Author_and_Fair_Access_2_">
		<g id="avatar_11_">
			<g>
				<defs>
					<circle id="SVGID_1_" cx="214.638" cy="84.202" r="47.189"/>
				</defs>
				<use xlink:href="#SVGID_1_"  style="overflow:visible;fill:#B4DFEC;"/>
				<clipPath id="SVGID_2_">
					<use xlink:href="#SVGID_1_"  style="overflow:visible;"/>
				</clipPath>
				<g class="st0">
					<path class="st1" d="M214.315,131.912c13.79,0,26.803-1.991,38.328-5.51l-2.784-21.673c-0.337-2.66-5.184-4.491-11.171-5.149
						c-16.306-1.794-32.438-1.789-48.739,0c-5.99,0.657-10.837,2.488-11.175,5.149l-2.781,21.673
						C187.519,129.921,200.527,131.912,214.315,131.912z"/>
					<path class="st2" d="M252.644,126.402l-2.784-21.673c-0.337-2.66-5.184-4.491-11.171-5.149
						c-8.455-0.93-16.863-1.364-25.269-1.331l-7.626,10.967l30.182,20.989C241.793,129.281,247.378,128.011,252.644,126.402z"/>
					<path class="st3" d="M224.879,103.395c-0.359,4.922-5.39,8.388-11.248,8.393l0,0c-5.858-0.018-10.884-3.499-11.238-8.421
						c-0.151-2.508-0.304-5.017-0.455-7.527c-0.355-4.903,4.881-9.479,11.712-9.464l0,0c6.83,0,12.061,4.588,11.698,9.491
						C225.191,98.376,225.037,100.885,224.879,103.395z"/>
					<path class="st4" d="M217.488,86.891c-2.862,1.356-4.871,6.186-4.826,11.893c0.016,3.494,0.029,6.99,0.047,10.486
						c0.005,0.853,0.048,1.685,0.128,2.489c0.264,0.014,0.525,0.03,0.794,0.03c5.859-0.005,10.889-3.47,11.248-8.393
						c0.087-1.356,0.171-2.71,0.255-4.067c0.178-2.872-0.159-5.56-0.907-7.735C222.912,89.453,220.495,87.708,217.488,86.891z"/>
					<path class="st5" d="M213.722,60.588L213.722,60.588c-0.014,0-0.027,0-0.041,0c-0.015,0-0.029,0-0.042,0l0,0
						c-12.554-0.125-15.581,8.062-14.852,22.402c0.281,5.556,1.617,9.777,2.845,12.939c0.413,1.054,6.629,8.442,8.53,8.442
						c0.863,0,2.315,0.325,3.56,0.238c1.247,0.088,2.614-0.238,3.477-0.238c1.9,0,8.12-7.388,8.528-8.442
						c1.23-3.162,2.598-7.383,2.848-12.939C229.209,69.007,225.115,60.283,213.722,60.588z"/>
					<path class="st3" d="M202.424,86.888c0.057,1.503-0.733,2.82-1.766,2.963l0,0c-1.029,0.141-1.93-0.939-2.009-2.441
						c-0.127-2.415-0.255-4.833-0.38-7.248c-0.08-1.5,0.729-2.86,1.809-3.008l0,0c1.081-0.152,2.005,0.969,2.063,2.47
						C202.234,82.047,202.328,84.467,202.424,86.888z"/>
					<path class="st3" d="M228.351,87.41c-0.08,1.502-0.98,2.582-2.01,2.441l0,0c-1.03-0.144-1.822-1.462-1.764-2.963
						c0.094-2.422,0.189-4.842,0.283-7.263c0.056-1.503,0.978-2.622,2.059-2.47l0,0c1.083,0.148,1.892,1.508,1.811,3.008
						C228.604,82.578,228.479,84.995,228.351,87.41z"/>
					<path class="st6" d="M225.53,80.241c-0.3-6.522,0.588-12.521,0.6-12.521c0.029-0.02-6.136-3.211-10.943-3.003
						c-0.505,0.019-1.068,0.155-1.666,0.387c-0.597-0.232-1.162-0.367-1.668-0.387c-4.806-0.21-10.973,2.982-10.942,2.998
						c0.009,0,0.898,6,0.595,12.524c-0.306,6.527-1.195,12.217,0.963,14.031c2.187,1.828,5.87,6.003,10.77,6.211
						c0.093,0.005,0.185,0,0.279-0.001c0.091,0.001,0.183,0.006,0.277,0.001c4.901-0.207,8.586-4.38,10.771-6.208
						C226.725,92.459,225.838,86.77,225.53,80.241z"/>
					<path class="st3" d="M227.364,67.72c0.032-0.02-6.736-3.211-12.013-3.003c-0.414,0.014-0.872,0.112-1.346,0.248
						c-0.032,11.837-0.063,23.67-0.093,35.508c5.333-0.249,9.35-4.381,11.737-6.2c2.369-1.814,1.396-7.502,1.059-14.031
						C226.376,73.719,227.352,67.72,227.364,67.72z"/>
					<g>
						<path class="st5" d="M199.548,79.89c0,0-1.261-13.778-2.202-15.18c-0.953-1.459,11.981-4.257,15.811-4.279
							c3.792-0.198,7.259,0.952,9.489,1.443c2.104,0.42-8.418,8.757-8.278,8.846c0.242-0.745,0.487-1.486,0.736-2.229
							c-0.81,0.613-1.612,1.232-2.407,1.855c-3.271-0.853-6.588-1.612-9.948-2.275c0.022,1.803,0.047,3.607,0.073,5.41
							c-0.655,0.912-1.298,1.83-1.931,2.748c-0.149,1.194-0.293,2.389-0.431,3.584C200.154,79.838,199.852,79.865,199.548,79.89z"/>
						<path class="st5" d="M227.517,79.895c0,0,1.636-13.784,2.205-15.179c0.657-1.63-11.982-4.254-15.806-4.286
							c-3.789-0.198-6.976,0.939-9.203,1.425c-1.385,0.194,11.216-0.385,14.771,1.841c1.238,0.729-3.66,6.644-3.615,6.663
							c2.781-0.83,5.599-1.592,8.453-2.286c-0.023,1.803-0.049,3.609-0.077,5.41c0.655,0.914,1.301,1.831,1.935,2.751
							c0.147,1.194,0.29,2.389,0.43,3.583C226.911,79.844,227.213,79.87,227.517,79.895z"/>
					</g>
					<g>
						<g>
							<g>
								<path class="st5" d="M204.968,86.166l-0.009,0c-1.533-0.024-2.986-0.65-3.988-1.716c-0.896-0.955-1.356-2.171-1.298-3.425
									l0.04-1.127c0.011-0.292,0.059-0.589,0.117-0.882l0.072-0.355l0.345-0.113c3.153-1.032,6.59-1.157,9.838-0.359l-0.001,0.006
									c0.528,0.126,2.117,0.744,2.149,1.799l0.041,1.086c0.057,1.156-0.375,2.305-1.217,3.228
									c-0.999,1.097-2.477,1.764-4.05,1.832L204.968,86.166z M200.984,79.616c-0.015,0.109-0.026,0.218-0.031,0.326l-0.04,1.133
									c-0.043,0.922,0.299,1.816,0.963,2.524c0.771,0.82,1.898,1.303,3.093,1.324l1.999-0.026c1.229-0.053,2.39-0.574,3.169-1.428
									c0.616-0.677,0.933-1.507,0.893-2.337l-0.041-1.098c-0.086-0.163-0.79-0.515-1.136-0.624l-0.066-0.017
									C206.883,78.681,203.817,78.759,200.984,79.616z"/>
							</g>
							<g>
								<path class="st5" d="M221.222,86.166l-0.009,0c-1.534-0.024-2.987-0.651-3.989-1.719c-0.896-0.955-1.355-2.171-1.296-3.423
									l0.04-1.128c0.011-0.29,0.06-0.586,0.118-0.882l0.07-0.357l0.347-0.113c3.155-1.027,6.589-1.151,9.837-0.355l-0.001,0.006
									c0.526,0.126,2.118,0.743,2.151,1.798l0.041,1.086c0.056,1.157-0.378,2.307-1.221,3.231c-0.999,1.095-2.476,1.762-4.05,1.83
									L221.222,86.166z M217.241,79.613c-0.016,0.11-0.027,0.22-0.032,0.329l-0.04,1.133c-0.044,0.922,0.297,1.814,0.961,2.521
									c0.771,0.822,1.898,1.305,3.094,1.326l2-0.026c1.228-0.053,2.39-0.573,3.169-1.426c0.619-0.677,0.937-1.508,0.896-2.34
									l-0.041-1.097c-0.086-0.163-0.79-0.514-1.136-0.624l-0.068-0.017C223.14,78.683,220.077,78.759,217.241,79.613z"/>
							</g>
						</g>
						<rect x="211.253" y="79.673" class="st5" width="5.424" height="2.373"/>
					</g>
					<path class="st5" d="M220.334,92.337c-0.638-0.946-2.696-1.767-5.328-1.767c-0.027,0-0.934,0.596-0.97,0.579
						c-0.098-0.044-0.898-0.579-0.923-0.579c-2.63,0-4.755,0.821-5.392,1.767c-3.892,7.477-5.372,0.834-7.103-1.308
						c2.909,6.772,5.638,11.76,13.151,12.831c0.087,0.013,0.173-0.007,0.257-0.011c0.085,0.005,2.355-0.273,2.441-0.273
						c4.663-0.002,8.058-5.774,10.97-12.546C225.703,93.171,224.223,99.815,220.334,92.337z"/>
					<g>
						<path class="st6" d="M210.887,93.773c-0.035,0.126-0.054,0.26-0.054,0.399c0,0.996,0.92,1.803,2.055,1.803h2.28
							c1.134,0,2.056-0.807,2.056-1.803c0-0.139-0.02-0.273-0.056-0.399H210.887z"/>
					</g>
				</g>
			</g>
			<g>
				<path class="st7" d="M235.105,52.852c-1.148,0-2.08,0.931-2.08,2.08c0,0.524,0.196,1.001,0.514,1.366
					c-2.076,1.56-4.657,2.485-7.453,2.485c-5.049,0-9.394-3.012-11.338-7.337c0.809-0.284,1.39-1.054,1.39-1.96
					c0-1.149-0.931-2.08-2.08-2.08c-1.149,0-2.08,0.931-2.08,2.08c0,0.906,0.581,1.676,1.391,1.96
					c-1.944,4.325-6.289,7.337-11.338,7.337c-2.797,0-5.377-0.925-7.454-2.485c0.32-0.365,0.514-0.843,0.514-1.366
					c0-1.149-0.931-2.08-2.08-2.08c-1.149,0-2.08,0.931-2.08,2.08c0,1.149,0.931,2.08,2.08,2.08c0.201,0,0.395-0.03,0.579-0.083
					c1.28,3.619,3.455,11.05,4.735,14.695c9.389,0,21.348,0,30.737,0c1.992-3.509,4.182-11.075,5.462-14.695
					c0.184,0.053,0.378,0.083,0.579,0.083c1.15,0,2.081-0.931,2.081-2.08C237.186,53.782,236.255,52.852,235.105,52.852z"/>
				<polygon class="st1" points="228.234,74.496 198.953,74.496 198.327,71.624 229.064,71.624 				"/>
				<polygon class="st8" points="211.671,66.864 210.195,62.322 214.059,59.514 217.923,62.322 216.447,66.864 				"/>
				<g id="LOGO_3_">
					<g>
						<g>
							<g>
								<path class="st1" d="M214.059,64.384l0.335,1.027c0.011,0.033,0.059,0.03,0.065-0.004l0.773-3.974
									c0.013-0.067-0.038-0.129-0.106-0.129h-2.131c-0.068,0-0.119,0.062-0.106,0.129l0.772,3.976
									c0.007,0.034,0.054,0.037,0.065,0.004l0.334-1.027V64.384z"/>
								<path class="st1" d="M218.327,63.001c0.047-0.049,0.038-0.129-0.019-0.167l-1.786-1.16c-0.057-0.037-0.134-0.013-0.16,0.05
									l-1.732,4.284c-0.01,0.024-0.01,0.05-0.003,0.074l0.127,0.389c0.025,0.078,0.124,0.101,0.181,0.042L218.327,63.001z"/>
								<path class="st1" d="M220.119,65.933l-0.866-1.946c-0.028-0.062-0.106-0.084-0.162-0.045l-4.149,2.904
									c-0.039,0.027-0.056,0.077-0.041,0.122l0.061,0.186c0.017,0.053,0.073,0.085,0.127,0.072l4.956-1.143
									C220.111,66.068,220.147,65.995,220.119,65.933z"/>
								<path class="st1" d="M211.757,61.724c-0.026-0.063-0.103-0.088-0.16-0.05l-1.787,1.16c-0.057,0.037-0.066,0.117-0.019,0.167
									l3.394,3.514c0.057,0.059,0.156,0.036,0.181-0.042l0.126-0.388c0.008-0.024,0.007-0.05-0.003-0.074L211.757,61.724z"/>
								<path class="st1" d="M209.027,63.942c-0.056-0.039-0.134-0.018-0.161,0.045l-0.867,1.946
									c-0.028,0.062,0.008,0.135,0.075,0.15l4.958,1.144c0.055,0.013,0.11-0.019,0.128-0.072l0.06-0.185
									c0.015-0.045-0.002-0.095-0.041-0.122L209.027,63.942z"/>
							</g>
						</g>
					</g>
				</g>
			</g>
		</g>
		<g>
			<path class="st1" d="M155.012,99.344H31.495c-1.89,0-3.416-1.632-3.416-3.659V25.603c0-2.024,1.526-3.66,3.416-3.66h146.346
				c1.884,0,3.412,1.636,3.412,3.66v52.398l13.121,11.068l-13.121-0.004v6.621c0,2.026-1.528,3.659-3.412,3.659h-6.618H155.012z"/>
			<g>
				<path class="st9" d="M41.025,49.29h1.667V39.231h-1.667v-1.94h9.941v3.607H48.77v-1.432h-3.51v4h4.529v2.059h-4.529v3.765h1.843
					v1.922h-6.078V49.29z"/>
				<path class="st9" d="M50.813,49.29h1.274l4.177-11.999h2.921l4.177,11.999h1.274v1.922h-5.235V49.29h1.373l-0.863-2.607h-4.392
					l-0.863,2.607h1.373v1.922h-5.216V49.29z M59.323,44.682l-1.313-3.941c-0.216-0.686-0.255-1.216-0.255-1.216h-0.06
					c0,0-0.059,0.53-0.255,1.216l-1.333,3.941H59.323z"/>
				<path class="st9" d="M65.661,49.29h1.667V39.231h-1.667v-1.94h5.921v1.94h-1.686V49.29h1.686v1.922h-5.921V49.29z"/>
				<path class="st9" d="M73.369,49.29h1.667V39.231h-1.667v-1.94h6.137c1.02,0,1.863,0.059,2.647,0.294
					c1.549,0.51,2.568,1.765,2.568,3.726c0,1.94-1.02,3.313-2.627,3.862v0.039c0,0,0.411,0.216,0.686,0.726l1.608,2.902
					c0.196,0.353,0.471,0.45,0.941,0.45h0.45v1.922h-1.627c-1.157,0-1.51-0.235-1.941-1.039l-1.98-3.588
					c-0.294-0.53-0.549-0.706-1.353-0.706h-1.274v3.411h1.607v1.922h-5.843V49.29z M79.918,43.82c1.353,0,2.235-0.805,2.235-2.295
					c0-0.901-0.333-1.607-1.098-1.921c-0.393-0.177-0.922-0.255-1.569-0.255h-1.882v4.471H79.918z"/>
				<path class="st9" d="M91.198,49.29h1.274l4.177-11.999h2.921l4.177,11.999h1.274v1.922h-5.235V49.29h1.373l-0.863-2.607h-4.392
					l-0.863,2.607h1.373v1.922h-5.216V49.29z M99.708,44.682l-1.313-3.941c-0.216-0.686-0.255-1.216-0.255-1.216h-0.06
					c0,0-0.059,0.53-0.255,1.216l-1.333,3.941H99.708z"/>
				<path class="st9" d="M112.83,37.055c1.687,0,5.432,0.588,5.432,2.784v1.882h-2.334v-1.078c0-1.039-1.843-1.393-2.98-1.393
					c-2.686,0-4.646,1.883-4.646,4.824c0,3.137,2.039,5.176,4.784,5.176c0.843,0,3.02-0.274,3.02-1.372V46.8h2.333v1.902
					c0,2.078-3.588,2.745-5.51,2.745c-4.215,0-7.274-3.196-7.274-7.255C105.653,40.075,108.791,37.055,112.83,37.055z"/>
				<path class="st9" d="M127.246,37.055c1.687,0,5.432,0.588,5.432,2.784v1.882h-2.334v-1.078c0-1.039-1.843-1.393-2.98-1.393
					c-2.686,0-4.646,1.883-4.646,4.824c0,3.137,2.039,5.176,4.784,5.176c0.843,0,3.02-0.274,3.02-1.372V46.8h2.333v1.902
					c0,2.078-3.588,2.745-5.51,2.745c-4.215,0-7.274-3.196-7.274-7.255C120.069,40.075,123.207,37.055,127.246,37.055z"/>
				<path class="st9" d="M134.624,49.29h1.667V39.231h-1.667v-1.94h10.333v3.588h-2.196v-1.529h-3.901v3.823h4.588v2.059h-4.588
					v3.922h4.195v-1.568h2.196v3.627h-10.627V49.29z"/>
				<path class="st9" d="M149.274,46.721v1.039c0,0.902,1.138,1.432,2.451,1.432c1.411,0,2.411-0.607,2.411-1.726
					c0-1.412-1.588-1.862-3.195-2.49c-1.863-0.706-3.687-1.549-3.687-4.039c0-2.804,2.274-3.882,4.667-3.882
					c2.195,0,4.411,0.843,4.411,2.45v1.824H154v-0.941c0-0.706-1.039-1.078-2.078-1.078c-1.138,0-2.079,0.47-2.079,1.529
					c0,1.274,1.294,1.726,2.745,2.274c2.079,0.745,4.157,1.568,4.157,4.176c0,2.844-2.393,4.157-5.02,4.157
					c-2.313,0-4.784-1.039-4.784-3.138v-1.588H149.274z"/>
				<path class="st9" d="M160.748,46.721v1.039c0,0.902,1.138,1.432,2.451,1.432c1.411,0,2.411-0.607,2.411-1.726
					c0-1.412-1.588-1.862-3.195-2.49c-1.863-0.706-3.687-1.549-3.687-4.039c0-2.804,2.274-3.882,4.667-3.882
					c2.195,0,4.411,0.843,4.411,2.45v1.824h-2.333v-0.941c0-0.706-1.039-1.078-2.078-1.078c-1.138,0-2.079,0.47-2.079,1.529
					c0,1.274,1.294,1.726,2.745,2.274c2.079,0.745,4.157,1.568,4.157,4.176c0,2.844-2.393,4.157-5.02,4.157
					c-2.313,0-4.784-1.039-4.784-3.138v-1.588H160.748z"/>
				<path class="st9" d="M44.278,59.073h-2.5v-0.889h6.022v0.889h-2.5v6.404h-1.022V59.073z"/>
				<path class="st9" d="M48.736,58.184h1.023v3.202h3.78v-3.202h1.023v7.293H53.54v-3.202h-3.78v3.202h-1.023V58.184z"/>
				<path class="st9" d="M56.437,58.184h4.236v0.889h-3.213v2.282h2.613v0.889h-2.613v2.345h3.388v0.889h-4.411V58.184z"/>
				<path class="st9" d="M68.415,63.381h-2.748l-0.723,2.097H63.89l2.623-7.293h1.075l2.623,7.293h-1.063L68.415,63.381z
					 M67.041,59.186c0,0-0.165,0.661-0.289,1.033l-0.816,2.313h2.211l-0.806-2.313c-0.124-0.372-0.279-1.033-0.279-1.033H67.041z"/>
				<path class="st9" d="M71.004,58.184h1.022v4.71c0,1.116,0.723,1.767,1.839,1.767c1.126,0,1.859-0.65,1.859-1.787v-4.689h1.022
					v4.71c0,1.622-1.167,2.707-2.872,2.707c-1.704,0-2.871-1.085-2.871-2.707V58.184z"/>
				<path class="st9" d="M80.079,59.073h-2.5v-0.889h6.022v0.889h-2.5v6.404h-1.022V59.073z"/>
				<path class="st9" d="M84.537,58.184h1.022v3.202h3.78v-3.202h1.023v7.293H89.34v-3.202h-3.78v3.202h-1.022V58.184z"/>
				<path class="st9" d="M95.492,58.06c2.107,0,3.739,1.622,3.739,3.719c0,2.148-1.632,3.822-3.739,3.822s-3.75-1.674-3.75-3.822
					C91.742,59.682,93.385,58.06,95.492,58.06z M95.492,64.661c1.487,0,2.686-1.239,2.686-2.882c0-1.591-1.198-2.789-2.686-2.789
					c-1.488,0-2.696,1.198-2.696,2.789C92.796,63.422,94.004,64.661,95.492,64.661z"/>
				<path class="st9" d="M100.609,58.184h2.231c0.765,0,1.085,0.062,1.364,0.165c0.743,0.279,1.229,1.013,1.229,1.974
					c0,0.93-0.516,1.714-1.312,1.973v0.021c0,0,0.083,0.093,0.217,0.331l1.55,2.83h-1.157l-1.539-2.902h-1.56v2.902h-1.023V58.184z
					 M103.099,61.686c0.795,0,1.291-0.506,1.291-1.322c0-0.537-0.206-0.92-0.578-1.126c-0.196-0.104-0.435-0.165-1.002-0.165h-1.178
					v2.613H103.099z"/>
				<path class="st9" d="M109.674,58.184h1.023v3.202h3.78v-3.202h1.023v7.293h-1.023v-3.202h-3.78v3.202h-1.023V58.184z"/>
				<path class="st9" d="M120.99,63.381h-2.748l-0.723,2.097h-1.054l2.623-7.293h1.075l2.623,7.293h-1.063L120.99,63.381z
					 M119.616,59.186c0,0-0.165,0.661-0.289,1.033l-0.816,2.313h2.211l-0.806-2.313c-0.124-0.372-0.279-1.033-0.279-1.033H119.616z"
					/>
				<path class="st9" d="M123.775,63.866c0,0,0.774,0.785,1.859,0.785c0.682,0,1.26-0.383,1.26-1.074
					c0-1.581-3.532-1.24-3.532-3.481c0-1.137,0.98-2.035,2.354-2.035c1.354,0,2.066,0.733,2.066,0.733l-0.465,0.847
					c0,0-0.672-0.63-1.602-0.63c-0.774,0-1.322,0.485-1.322,1.064c0,1.508,3.533,1.105,3.533,3.471c0,1.126-0.867,2.056-2.313,2.056
					c-1.55,0-2.418-0.961-2.418-0.961L123.775,63.866z"/>
				<path class="st9" d="M131.838,58.184h2.665c1.332,0,2.293,0.898,2.293,2.283c0,1.384-0.961,2.313-2.293,2.313h-1.643v2.696
					h-1.022V58.184z M134.337,61.892c0.879,0,1.416-0.547,1.416-1.425c0-0.879-0.537-1.395-1.405-1.395h-1.487v2.819H134.337z"/>
				<path class="st9" d="M141.255,58.06c2.107,0,3.739,1.622,3.739,3.719c0,2.148-1.632,3.822-3.739,3.822s-3.75-1.674-3.75-3.822
					C137.505,59.682,139.147,58.06,141.255,58.06z M141.255,64.661c1.487,0,2.686-1.239,2.686-2.882
					c0-1.591-1.198-2.789-2.686-2.789c-1.488,0-2.696,1.198-2.696,2.789C138.558,63.422,139.766,64.661,141.255,64.661z"/>
				<path class="st9" d="M150.679,58.184l1.426,5.351c0.104,0.403,0.155,0.775,0.155,0.775h0.021c0,0,0.031-0.383,0.134-0.775
					l1.344-5.351h1.054l-1.911,7.293h-1.188l-1.26-4.731c-0.124-0.465-0.218-1.033-0.218-1.033h-0.021c0,0-0.093,0.568-0.217,1.033
					l-1.26,4.731h-1.188l-1.859-7.293h1.054l1.291,5.351c0.094,0.393,0.135,0.775,0.135,0.775h0.021c0,0,0.052-0.372,0.155-0.775
					l1.425-5.351H150.679z"/>
				<path class="st9" d="M156.025,58.184h4.235v0.889h-3.213v2.282h2.613v0.889h-2.613v2.345h3.388v0.889h-4.41V58.184z"/>
				<path class="st9" d="M161.836,58.184h2.231c0.765,0,1.085,0.062,1.364,0.165c0.743,0.279,1.229,1.013,1.229,1.974
					c0,0.93-0.516,1.714-1.312,1.973v0.021c0,0,0.083,0.093,0.217,0.331l1.55,2.83h-1.157l-1.539-2.902h-1.56v2.902h-1.023V58.184z
					 M164.326,61.686c0.795,0,1.291-0.506,1.291-1.322c0-0.537-0.206-0.92-0.578-1.126c-0.196-0.104-0.435-0.165-1.002-0.165h-1.178
					v2.613H164.326z"/>
				<path class="st9" d="M50.421,70.745h-2.5v-0.889h6.022v0.889h-2.5v6.404h-1.022V70.745z"/>
				<path class="st9" d="M58.03,69.732c2.107,0,3.739,1.622,3.739,3.719c0,2.148-1.632,3.822-3.739,3.822s-3.75-1.674-3.75-3.822
					C54.28,71.354,55.923,69.732,58.03,69.732z M58.03,76.333c1.487,0,2.686-1.239,2.686-2.882c0-1.591-1.198-2.789-2.686-2.789
					c-1.488,0-2.696,1.198-2.696,2.789C55.334,75.094,56.542,76.333,58.03,76.333z"/>
				<path class="st9" d="M68.91,69.732c1.757,0,2.655,0.961,2.655,0.961l-0.506,0.764c0,0-0.848-0.795-2.107-0.795
					c-1.633,0-2.696,1.239-2.696,2.789c0,1.56,1.084,2.882,2.706,2.882c1.374,0,2.252-0.95,2.252-0.95l0.548,0.733
					c0,0-1.002,1.157-2.831,1.157c-2.189,0-3.729-1.674-3.729-3.812C65.202,71.344,66.793,69.732,68.91,69.732z"/>
				<path class="st9" d="M73.047,69.856h1.023v3.202h3.78v-3.202h1.023v7.293H77.85v-3.202h-3.78v3.202h-1.023V69.856z"/>
				<path class="st9" d="M84.003,69.732c2.107,0,3.739,1.622,3.739,3.719c0,2.148-1.632,3.822-3.739,3.822s-3.75-1.674-3.75-3.822
					C80.253,71.354,81.895,69.732,84.003,69.732z M84.003,76.333c1.487,0,2.686-1.239,2.686-2.882c0-1.591-1.198-2.789-2.686-2.789
					c-1.488,0-2.696,1.198-2.696,2.789C81.306,75.094,82.514,76.333,84.003,76.333z"/>
				<path class="st9" d="M92.375,69.732c2.107,0,3.739,1.622,3.739,3.719c0,2.148-1.632,3.822-3.739,3.822s-3.75-1.674-3.75-3.822
					C88.625,71.354,90.267,69.732,92.375,69.732z M92.375,76.333c1.487,0,2.686-1.239,2.686-2.882c0-1.591-1.198-2.789-2.686-2.789
					c-1.488,0-2.696,1.198-2.696,2.789C89.679,75.094,90.887,76.333,92.375,76.333z"/>
				<path class="st9" d="M97.513,75.538c0,0,0.774,0.785,1.859,0.785c0.682,0,1.26-0.383,1.26-1.074c0-1.581-3.532-1.24-3.532-3.481
					c0-1.137,0.98-2.035,2.354-2.035c1.354,0,2.066,0.733,2.066,0.733l-0.465,0.847c0,0-0.672-0.63-1.602-0.63
					c-0.774,0-1.322,0.485-1.322,1.064c0,1.508,3.533,1.105,3.533,3.471c0,1.126-0.867,2.056-2.313,2.056
					c-1.55,0-2.418-0.961-2.418-0.961L97.513,75.538z"/>
				<path class="st9" d="M103.025,69.856h4.236v0.889h-3.213v2.282h2.613v0.889h-2.613v2.345h3.388v0.889h-4.411V69.856z"/>
				<path class="st9" d="M112.948,70.745h-2.5v-0.889h6.022v0.889h-2.5v6.404h-1.022V70.745z"/>
				<path class="st9" d="M117.406,69.856h1.022v3.202h3.78v-3.202h1.023v7.293h-1.023v-3.202h-3.78v3.202h-1.022V69.856z"/>
				<path class="st9" d="M125.107,69.856h4.235v0.889h-3.213v2.282h2.613v0.889h-2.613v2.345h3.388v0.889h-4.41V69.856z"/>
				<path class="st9" d="M133.469,69.856h2.666c1.332,0,2.293,0.898,2.293,2.283c0,1.384-0.961,2.313-2.293,2.313h-1.643v2.696
					h-1.023V69.856z M135.969,73.564c0.879,0,1.416-0.547,1.416-1.425c0-0.879-0.537-1.395-1.405-1.395h-1.487v2.819H135.969z"/>
				<path class="st9" d="M139.631,69.856h2.231c0.765,0,1.085,0.062,1.364,0.165c0.743,0.279,1.229,1.013,1.229,1.974
					c0,0.93-0.516,1.714-1.312,1.973v0.021c0,0,0.083,0.093,0.217,0.331l1.55,2.83h-1.157l-1.539-2.902h-1.56v2.902h-1.023V69.856z
					 M142.121,73.358c0.795,0,1.291-0.506,1.291-1.322c0-0.537-0.206-0.92-0.578-1.126c-0.196-0.104-0.435-0.165-1.002-0.165h-1.178
					v2.613H142.121z"/>
				<path class="st9" d="M146.146,69.856h1.022v7.293h-1.022V69.856z"/>
				<path class="st9" d="M152.259,69.732c1.757,0,2.655,0.961,2.655,0.961l-0.506,0.764c0,0-0.848-0.795-2.107-0.795
					c-1.633,0-2.696,1.239-2.696,2.789c0,1.56,1.084,2.882,2.706,2.882c1.374,0,2.252-0.95,2.252-0.95l0.548,0.733
					c0,0-1.002,1.157-2.831,1.157c-2.189,0-3.729-1.674-3.729-3.812C148.551,71.344,150.141,69.732,152.259,69.732z"/>
				<path class="st9" d="M156.396,69.856h4.235v0.889h-3.213v2.282h2.613v0.889h-2.613v2.345h3.388v0.889h-4.41V69.856z"/>
				<path class="st9" d="M66.89,81.527h4.019v0.889h-2.995v2.396h2.552V85.7h-2.552v3.12H66.89V81.527z"/>
				<path class="st9" d="M72.166,81.527h2.231c0.765,0,1.085,0.062,1.364,0.165c0.743,0.279,1.229,1.013,1.229,1.974
					c0,0.93-0.516,1.714-1.312,1.973v0.021c0,0,0.083,0.093,0.217,0.331l1.55,2.83h-1.157l-1.539-2.902h-1.56v2.902h-1.023V81.527z
					 M74.656,85.029c0.795,0,1.291-0.507,1.291-1.322c0-0.537-0.206-0.92-0.578-1.126c-0.196-0.104-0.435-0.165-1.002-0.165h-1.178
					v2.613H74.656z"/>
				<path class="st9" d="M81.934,81.403c2.107,0,3.739,1.622,3.739,3.719c0,2.148-1.632,3.822-3.739,3.822s-3.75-1.674-3.75-3.822
					C78.184,83.025,79.827,81.403,81.934,81.403z M81.934,88.004c1.487,0,2.686-1.239,2.686-2.882c0-1.591-1.198-2.789-2.686-2.789
					c-1.488,0-2.696,1.198-2.696,2.789C79.238,86.764,80.446,88.004,81.934,88.004z"/>
				<path class="st9" d="M87.414,81.527h1.074l1.674,3.946c0.165,0.402,0.361,0.981,0.361,0.981h0.021c0,0,0.196-0.579,0.361-0.981
					l1.674-3.946h1.074l0.589,7.293h-1.013l-0.361-4.597c-0.031-0.444-0.011-1.074-0.011-1.074h-0.021c0,0-0.217,0.671-0.393,1.074
					l-1.456,3.285h-0.909l-1.446-3.285c-0.165-0.393-0.393-1.096-0.393-1.096H88.22c0,0,0.01,0.651-0.021,1.096l-0.352,4.597h-1.022
					L87.414,81.527z"/>
				<path class="st9" d="M97.924,87.674h0.954V85.29h-0.795v-0.988h0.795v-1.373c0-1.34,1.078-2.305,2.577-2.305
					c1.226,0,2.031,0.783,2.031,0.783l-0.783,0.977c0,0-0.578-0.454-1.215-0.454c-0.681,0-1.123,0.454-1.123,1.044v1.328h1.93v0.988
					h-1.93v2.338h2.429V86.38h1.271v2.44h-6.142V87.674z"/>
				<path class="st9" d="M105.01,84.778c0-2.315,0.715-4.154,2.929-4.154c2.202,0,2.918,1.839,2.918,4.154
					c0,2.316-0.716,4.178-2.918,4.178C105.724,88.956,105.01,87.095,105.01,84.778z M109.357,84.778
					c0-1.589-0.317-2.849-1.419-2.849c-1.112,0-1.419,1.26-1.419,2.849c0,1.612,0.307,2.873,1.419,2.873
					C109.04,87.651,109.357,86.39,109.357,84.778z"/>
				<path class="st9" d="M116.576,82.416h-2.5v-0.889h6.022v0.889h-2.5v6.404h-1.022V82.416z"/>
				<path class="st9" d="M124.18,81.403c2.107,0,3.739,1.622,3.739,3.719c0,2.148-1.632,3.822-3.739,3.822s-3.75-1.674-3.75-3.822
					C120.43,83.025,122.073,81.403,124.18,81.403z M124.18,88.004c1.487,0,2.686-1.239,2.686-2.882c0-1.591-1.198-2.789-2.686-2.789
					c-1.488,0-2.696,1.198-2.696,2.789C121.484,86.764,122.692,88.004,124.18,88.004z"/>
				<path class="st9" d="M142.399,85.773c0,0.805-0.256,1.483-0.767,2.035c-0.512,0.551-1.145,0.826-1.898,0.826
					c-1.028,0-1.894-0.525-2.597-1.576c-0.337,0.468-0.727,0.84-1.169,1.113c-0.443,0.274-0.879,0.412-1.308,0.412
					c-0.805,0-1.458-0.263-1.958-0.789c-0.5-0.525-0.749-1.217-0.749-2.073c0-0.822,0.255-1.503,0.767-2.04
					c0.511-0.536,1.158-0.805,1.94-0.805c1.018,0,1.86,0.522,2.528,1.567c0.72-1.022,1.568-1.533,2.545-1.533
					c0.782,0,1.423,0.26,1.92,0.779C142.15,84.211,142.399,84.904,142.399,85.773z M134.747,86.964c0.286,0,0.55-0.1,0.793-0.3
					c0.242-0.2,0.486-0.514,0.732-0.942c-0.229-0.411-0.466-0.722-0.711-0.93c-0.246-0.209-0.523-0.312-0.831-0.312
					c-0.332,0-0.604,0.117-0.818,0.351c-0.215,0.234-0.321,0.537-0.321,0.908c0,0.36,0.104,0.654,0.312,0.883
					C134.111,86.849,134.392,86.964,134.747,86.964z M139.605,84.53c-0.531,0-1.045,0.408-1.542,1.226
					c0.503,0.846,1.022,1.269,1.56,1.269c0.325,0,0.599-0.119,0.818-0.356c0.22-0.236,0.33-0.541,0.33-0.912
					c0-0.36-0.11-0.654-0.33-0.883S139.942,84.53,139.605,84.53z"/>
			</g>
		</g>
		<g>
			<polygon class="st10" points="28.099,36.304 35.902,28.503 42.427,21.935 40.697,21.95 28.099,34.903 			"/>
			<polygon class="st11" points="17.792,7.604 36.83,7.604 46.329,17.103 8.294,17.103 			"/>
			<polygon class="st11" points="8.294,17.103 46.329,17.103 27.311,36.121 			"/>
			<polygon class="st11" points="8.294,17.103 17.824,17.103 27.329,36.103 27.311,36.121 			"/>
			<polygon class="st11" points="46.329,17.103 36.799,17.103 27.294,36.103 27.311,36.121 			"/>
			<polygon class="st12" points="17.775,7.584 17.775,26.622 27.294,17.103 			"/>
			<polygon class="st13" points="27.329,36.131 27.329,17.093 17.81,26.612 			"/>
			<polygon class="st13" points="27.329,36.131 27.329,17.093 36.848,26.612 			"/>
			<polygon class="st13" points="27.329,36.023 27.329,17.093 27.339,17.093 33.644,23.398 			"/>
			<polygon class="st11" points="17.792,7.604 27.311,7.604 27.311,17.103 8.294,17.103 			"/>
			<polygon class="st11" points="17.792,7.584 36.83,7.584 27.311,17.103 			"/>
			<polygon class="st12" points="36.83,17.103 17.792,17.103 27.311,7.584 			"/>
			<polygon class="st12" points="36.848,7.584 36.848,26.622 27.329,17.103 			"/>
			<polygon class="st11" points="36.83,7.584 27.329,17.085 27.329,7.584 			"/>
			<polygon class="st12" points="36.83,17.103 27.329,17.103 27.329,7.602 			"/>
		</g>
	</g>
	<g id="Publishing_Phase_2_">
		<path class="st14" d="M250.05,176.434l12.511,12.509c0.304,0.305,0.711,0.473,1.143,0.473c0.433,0,0.839-0.168,1.144-0.473
			l19.799-19.798c0.59-0.591,1.05-1.75,1.025-2.583l-0.337-11.248c-0.026-0.885-0.769-1.628-1.654-1.654l-0.134-0.004
			c0.589-1.82,0.873-4.022,0.135-6.252c-0.106-0.32-0.452-0.492-0.77-0.387c-0.32,0.106-0.493,0.451-0.387,0.77
			c0.682,2.059,0.339,4.141-0.261,5.831l-2.829-0.084c-0.404-1.84-0.387-4.047,1.058-5.921c0.205-0.266,0.156-0.648-0.111-0.854
			c-0.267-0.205-0.649-0.157-0.854,0.111c-1.657,2.148-1.762,4.581-1.366,6.627l-5.797-0.173c-0.834,0-1.939,0.451-2.515,1.027
			l-19.8,19.799C249.421,174.777,249.421,175.803,250.05,176.434z M279.372,160.711c-0.248-0.078-0.481-0.213-0.678-0.41
			c-0.649-0.649-0.65-1.702-0.001-2.351c0.264-0.264,0.594-0.419,0.937-0.468c0.17,0.308,0.291,0.497,0.318,0.539
			c0.117,0.18,0.312,0.277,0.511,0.277c0.114,0,0.229-0.032,0.332-0.098c0.106-0.068,0.183-0.164,0.229-0.272
			c0.008,0.008,0.017,0.014,0.017,0.014c0.063,0.063,0.112,0.122,0.158,0.183c0.493,0.651,0.444,1.582-0.15,2.176
			c-0.195,0.195-0.426,0.33-0.671,0.408C280.049,160.806,279.697,160.807,279.372,160.711z"/>
		<g>
			<path class="st15" d="M281.087,157.671c0.114,0,0.229-0.032,0.332-0.098c0.282-0.183,0.362-0.56,0.18-0.842
				c-0.037-0.056-3.609-5.685-0.477-9.746c0.205-0.266,0.156-0.648-0.111-0.854c-0.267-0.205-0.649-0.157-0.854,0.111
				c-3.663,4.747,0.251,10.894,0.42,11.153C280.693,157.574,280.888,157.671,281.087,157.671z"/>
		</g>
		<path class="st16" d="M375.206,44.07H344.94l-0.001-3.693c0-9.299,6.775-16.836,15.133-16.836l0,0
			c8.359,0,15.134,7.537,15.134,16.836L375.206,44.07z"/>
		<path class="st17" d="M374.815,43.679h-30.267l0-3.692c0-9.298,6.776-16.836,15.134-16.836l0,0
			c8.358,0,15.133,7.538,15.133,16.836L374.815,43.679z"/>
		<path class="st18" d="M345.9,85.036h-33.67v11.389c0,9.297,7.538,16.836,16.834,16.836l0,0c9.299,0,16.836-7.539,16.836-16.836
			V85.036z"/>
		<path class="st9" d="M345.509,85.036h-33.67v11.389c0,9.297,7.538,16.836,16.835,16.836l0,0c9.298,0,16.835-7.539,16.835-16.836
			V85.036z"/>
		<path class="st18" d="M303.983,38.732c0-8.632,7.403-15.191,13.422-15.473l43.024-0.108c0,0-5.735,0.018-9.686,3.628
			c-4.699,4.293-4.808,7.792-4.836,10.737c-0.112,11.33,0.01,47.572,0.01,47.572h-41.933
			C303.983,74.135,303.983,38.732,303.983,38.732z"/>
		<path class="st9" d="M303.593,38.732c0-8.632,7.402-15.191,13.421-15.473l43.024-0.108c0,0-5.735,0.018-9.686,3.628
			c-4.699,4.293-4.809,7.792-4.837,10.737c-0.112,11.33,0.011,55.874,0.011,55.874h-41.933
			C303.593,82.437,303.593,38.732,303.593,38.732z"/>
		<g>
			<rect x="306.497" y="87.967" class="st19" width="36.385" height="0.767"/>
			<rect x="306.497" y="89.891" class="st19" width="36.385" height="0.766"/>
			<rect x="306.497" y="91.814" class="st19" width="36.385" height="0.765"/>
			<rect x="324.69" y="93.736" class="st19" width="18.193" height="0.767"/>
			<rect x="306.497" y="93.736" class="st19" width="17.059" height="0.767"/>
			<rect x="306.497" y="95.661" class="st19" width="26.286" height="0.765"/>
			<rect x="306.497" y="97.584" class="st19" width="33.248" height="0.766"/>
			<rect x="306.497" y="99.375" class="st19" width="23.976" height="0.765"/>
			<rect x="306.497" y="101.165" class="st19" width="21.218" height="0.767"/>
			<rect x="306.497" y="102.955" class="st19" width="15.381" height="0.769"/>
		</g>
		<g>
			<rect x="306.497" y="69.857" class="st19" width="36.385" height="0.766"/>
			<rect x="306.497" y="71.778" class="st19" width="36.385" height="0.767"/>
			<rect x="306.497" y="73.702" class="st19" width="36.385" height="0.766"/>
			<rect x="324.69" y="75.626" class="st19" width="18.193" height="0.767"/>
			<rect x="306.497" y="75.626" class="st19" width="17.059" height="0.767"/>
			<rect x="306.497" y="77.549" class="st19" width="26.286" height="0.766"/>
			<rect x="306.497" y="79.473" class="st19" width="33.248" height="0.766"/>
			<rect x="306.497" y="81.264" class="st19" width="23.976" height="0.766"/>
			<rect x="306.497" y="83.053" class="st19" width="21.218" height="0.767"/>
			<rect x="306.497" y="84.843" class="st19" width="15.381" height="0.769"/>
		</g>
		<g>
			<rect x="306.497" y="51.389" class="st19" width="36.385" height="0.769"/>
			<rect x="306.497" y="53.313" class="st19" width="36.385" height="0.767"/>
			<rect x="306.497" y="55.236" class="st19" width="36.385" height="0.766"/>
			<rect x="324.69" y="57.159" class="st19" width="18.193" height="0.767"/>
			<rect x="306.497" y="57.159" class="st19" width="17.059" height="0.767"/>
			<rect x="306.497" y="59.084" class="st19" width="26.286" height="0.765"/>
			<rect x="306.497" y="61.007" class="st19" width="33.248" height="0.767"/>
			<rect x="306.497" y="62.8" class="st19" width="23.976" height="0.765"/>
			<rect x="306.497" y="64.587" class="st19" width="21.218" height="0.769"/>
			<rect x="306.497" y="66.378" class="st19" width="15.381" height="0.769"/>
		</g>
		<path class="st18" d="M279.9,80.558h7.995v-0.474c0-9.296,6.776-16.834,15.133-16.834c8.358,0,15.133,7.538,15.133,16.834v0.474
			h0.007c0,0-0.002,0.164-0.007,0.451v14.554h-0.031c0.007,1.074,0.014,2.185,0.025,3.352c0.026,2.944,0.126,6.444,4.414,10.736
			c3.606,3.61,8.841,3.629,8.841,3.629l-48.541-0.134c0,0-2.92-0.098-2.972-4.499C279.898,108.647,279.9,91.514,279.9,80.558z"/>
		<path class="st17" d="M317.77,95.564h-30.267v-15.48c0-9.296,6.775-16.834,15.133-16.834l0,0c8.358,0,15.133,7.538,15.133,16.834
			V95.564z"/>
		<path class="st17" d="M279.507,108.647c0.051,4.401,2.972,4.499,2.972,4.499l48.539,0.134c0,0-5.234-0.018-8.84-3.629
			c-4.288-4.292-4.387-7.792-4.414-10.736c-0.102-11.331,0.012-18.358,0.012-18.358h-38.268
			C279.509,91.514,279.507,108.647,279.507,108.647z"/>
		<path class="st20" d="M289.135,135.425c0,0,0.517,8.061-1.36,10.95c-1.78,2.743-3.819,4.632-6.343,4.586l-41.789-0.024
			c0,0-1.208-0.02,2.743-3.631c4.699-4.293,4.807-7.792,4.837-10.738c0.112-11.328,0.134-57.494,0.134-57.494
			c-0.409-7.267,6.997-15.825,14.608-15.825h41.629c0,0-7.165,0.795-11.121,5.69c-3.19,3.95-3.19,7.413-3.19,10.049
			C289.282,89.943,289.135,135.425,289.135,135.425z"/>
		<path class="st9" d="M288.745,135.425c0,0,0.516,8.061-1.361,10.95c-1.78,2.743-3.819,4.632-6.343,4.586l-41.789-0.024
			c0,0-1.208-0.02,2.743-3.631c4.699-4.293,4.808-7.792,4.837-10.738c0.112-11.328,0.135-57.494,0.135-57.494
			c-0.409-7.267,6.793-15.795,14.404-15.795h41.629c0,0-6.962,0.765-10.917,5.66c-3.19,3.95-3.19,7.413-3.19,10.049
			C288.891,89.943,288.745,135.425,288.745,135.425z"/>
		<path class="st21" d="M262.917,130.19c-0.083,0.025-0.153,0.075-0.22,0.127c-0.09,0.07-0.145,0.114-0.212,0.095
			c-0.057-0.016-0.106-0.049-0.156-0.083c-0.092-0.061-0.193-0.129-0.364-0.108c-0.142,0.022-0.224,0.125-0.29,0.206
			c-0.091,0.115-0.122,0.146-0.227,0.09c-0.045-0.023-0.085-0.053-0.123-0.08c-0.133-0.091-0.296-0.206-0.517-0.063
			c-0.024,0.016-0.047,0.034-0.068,0.049c-0.047,0.038-0.076,0.062-0.114,0.062h-0.003c-0.042,0-0.077-0.036-0.129-0.092
			c-0.024-0.027-0.046-0.051-0.071-0.074c-0.082-0.073-0.173-0.103-0.271-0.095c-0.228,0.026-0.409,0.282-0.531,0.452l-0.04,0.055
			c-0.074,0.101-0.171,0.194-0.293,0.287c-0.002-0.029-0.005-0.06-0.007-0.086c-0.002-0.062,0-0.127,0.004-0.193
			c0.003-0.049,0.005-0.096,0.005-0.144v-0.087c0.003-0.133,0.005-0.271-0.028-0.406l-0.023-0.098l-0.096,0.029
			c-0.195,0.056-0.273,0.26-0.342,0.438c-0.049,0.129-0.101,0.263-0.181,0.296c-0.045,0.02-0.109,0.008-0.189-0.027
			c-0.086-0.036-0.104-0.086-0.138-0.196c-0.01-0.029-0.019-0.061-0.031-0.093c-0.014-0.037-0.032-0.073-0.052-0.108
			c0.123-0.292,0.171-0.626,0.171-0.857l0.002-0.056c0.004-0.097,0.008-0.218-0.111-0.305c-0.141-0.101-0.462-0.154-0.619-0.016
			c-0.189,0.164-0.18,0.456,0.022,0.838c0.054,0.104,0.13,0.19,0.204,0.277c0.039,0.047,0.08,0.091,0.115,0.14
			c-0.066,0.131-0.149,0.247-0.253,0.324c-0.136,0.102-0.289,0.126-0.469,0.072c-0.206-0.059-0.29-0.25-0.378-0.456l-0.066-0.151
			c-0.01-0.023-0.022-0.048-0.032-0.07c0.159-0.2,0.272-0.438,0.287-0.728c0.006-0.109,0.013-0.263-0.12-0.36
			c-0.13-0.091-0.326-0.08-0.444,0.031c-0.163,0.151-0.114,0.575-0.067,0.711c0.035,0.105,0.078,0.21,0.123,0.314
			c-0.159,0.171-0.362,0.312-0.56,0.434l-0.07,0.044c-0.187,0.121-0.335,0.217-0.546,0.175c-0.268-0.055-0.517-0.236-0.679-0.375
			c-0.312-0.269-0.517-0.703-0.533-1.129c-0.012-0.297,0.02-0.842,0.37-1.153c0.221-0.199,0.604-0.287,0.928-0.217
			c0.17,0.038,0.403,0.187,0.484,0.353c0.035,0.074,0.037,0.141,0.004,0.212c-0.022,0.043-0.057,0.097-0.1,0.103
			c-0.05-0.004-0.141-0.032-0.317-0.242l-0.145,0.121c0.129,0.154,0.294,0.338,0.485,0.309c0.102-0.012,0.187-0.081,0.248-0.208
			c0.06-0.12,0.059-0.251-0.003-0.379c-0.108-0.224-0.397-0.406-0.614-0.451c-0.386-0.087-0.827,0.016-1.096,0.257
			c-0.388,0.346-0.451,0.9-0.435,1.302c0.019,0.479,0.248,0.962,0.599,1.267c0.18,0.156,0.459,0.352,0.766,0.414
			c0.285,0.062,0.49-0.071,0.688-0.199l0.068-0.042c0.182-0.114,0.374-0.249,0.54-0.412l0.063,0.144
			c0.098,0.224,0.208,0.476,0.5,0.564c0.236,0.069,0.452,0.035,0.635-0.103c0.096-0.073,0.177-0.169,0.244-0.279
			c0.005,0.013,0.009,0.026,0.013,0.04c0.033,0.113,0.073,0.239,0.242,0.316c0.132,0.056,0.242,0.067,0.339,0.027
			c0.156-0.066,0.222-0.238,0.286-0.405c0.037-0.096,0.072-0.188,0.119-0.25c0.004,0.069,0.003,0.141,0.002,0.217v0.09
			c0,0.043-0.002,0.09-0.005,0.136c-0.004,0.071-0.007,0.141-0.004,0.211c0.005,0.069,0.01,0.132,0.019,0.196
			c-0.036,0.022-0.073,0.042-0.112,0.068c-0.114,0.062-0.221,0.136-0.327,0.208c-0.101,0.067-0.199,0.135-0.303,0.193
			c-0.203,0.116-0.178,0.272-0.156,0.334c0.06,0.178,0.319,0.333,0.538,0.333c0.017,0,0.037-0.001,0.056-0.004
			c0.304-0.038,0.484-0.463,0.509-0.736c0.01-0.105,0.005-0.206-0.002-0.301c0.183-0.123,0.32-0.251,0.423-0.394l0.042-0.055
			c0.089-0.124,0.254-0.359,0.399-0.373c0.026-0.004,0.067-0.001,0.123,0.048c0.019,0.017,0.037,0.037,0.054,0.059
			c0.062,0.068,0.151,0.154,0.285,0.157c0.1-0.006,0.167-0.06,0.221-0.103c0.016-0.014,0.034-0.03,0.053-0.042
			c0.107-0.068,0.171-0.03,0.302,0.062c0.045,0.031,0.092,0.062,0.144,0.092c0.251,0.132,0.38-0.032,0.466-0.14
			c0.053-0.068,0.1-0.127,0.167-0.134c0.097-0.018,0.154,0.022,0.232,0.077c0.057,0.037,0.123,0.083,0.213,0.107
			c0.156,0.041,0.279-0.051,0.377-0.127c0.056-0.041,0.107-0.08,0.157-0.095L262.917,130.19z M256.713,129.881
			c-0.028-0.071-0.055-0.139-0.078-0.207c-0.05-0.148-0.05-0.448,0.016-0.51c0.03-0.026,0.072-0.041,0.113-0.041
			c0.033,0,0.066,0.007,0.091,0.025c0.044,0.032,0.045,0.089,0.041,0.197C256.885,129.552,256.817,129.727,256.713,129.881z
			 M258.194,129.485c0,0.177-0.034,0.435-0.115,0.674c-0.017-0.02-0.035-0.041-0.053-0.06c-0.069-0.083-0.134-0.158-0.18-0.241
			c-0.089-0.171-0.216-0.475-0.064-0.609c0.029-0.023,0.08-0.035,0.139-0.035c0.089,0,0.19,0.025,0.244,0.063
			c0.032,0.024,0.035,0.05,0.031,0.142C258.194,129.443,258.194,129.464,258.194,129.485z M259.126,131.517
			c-0.02,0.214-0.163,0.544-0.345,0.566c-0.148,0.02-0.355-0.101-0.389-0.201c-0.005-0.017-0.018-0.056,0.07-0.107
			c0.109-0.062,0.213-0.133,0.316-0.203c0.103-0.068,0.206-0.139,0.315-0.201c0.012-0.006,0.025-0.013,0.035-0.02
			C259.13,131.405,259.13,131.459,259.126,131.517z"/>
		<g>
			<rect x="250.876" y="131.27" class="st21" width="16.227" height="0.254"/>
		</g>
		<g>
			<rect x="249.625" y="100.076" class="st19" width="36.385" height="0.766"/>
			<rect x="249.625" y="101.997" class="st19" width="36.385" height="0.768"/>
			<rect x="249.625" y="103.921" class="st19" width="36.385" height="0.767"/>
			<rect x="249.625" y="105.846" class="st19" width="18.193" height="0.765"/>
			<rect x="268.952" y="105.846" class="st19" width="17.058" height="0.765"/>
			<rect x="249.709" y="84.405" class="st19" width="16.763" height="0.766"/>
			<rect x="249.709" y="86.344" class="st19" width="16.763" height="0.768"/>
			<rect x="249.709" y="92.162" class="st19" width="16.763" height="0.768"/>
			<rect x="249.709" y="94.102" class="st19" width="16.763" height="0.768"/>
			<rect x="249.709" y="96.042" class="st19" width="16.763" height="0.768"/>
			<rect x="249.709" y="88.284" class="st19" width="16.763" height="0.767"/>
			<rect x="249.709" y="90.225" class="st19" width="16.763" height="0.765"/>
			<rect x="259.724" y="107.768" class="st19" width="26.286" height="0.767"/>
			<rect x="252.763" y="109.693" class="st19" width="33.248" height="0.766"/>
			<rect x="262.035" y="111.485" class="st19" width="23.976" height="0.766"/>
			<rect x="264.791" y="113.273" class="st19" width="21.219" height="0.769"/>
			<rect x="270.629" y="115.064" class="st19" width="15.381" height="0.767"/>
		</g>
		<path class="st18" d="M272.017,139.402l-39.319-0.107v4.334c0,4.114,3.335,7.452,7.45,7.452h41.336c0,0-7.081,0.517-8.725-3.787
			C272.229,145.902,271.495,143.607,272.017,139.402z"/>
		<path class="st17" d="M271.626,139.402l-39.319-0.107v4.334c0,4.114,3.335,7.452,7.451,7.452h41.335c0,0-7.08,0.517-8.724-3.787
			C271.838,145.902,271.103,143.607,271.626,139.402z"/>
		<rect x="268.952" y="84.405" class="st1" width="17.058" height="12.514"/>
		<rect x="306.491" y="46.255" class="st1" width="30.996" height="1.832"/>
		<path class="st15" d="M281.822,157.498c-0.046-0.061-0.095-0.12-0.15-0.175c-0.24-0.24-0.535-0.391-0.845-0.453
			c0.022-0.066,0.053-0.129,0.099-0.186c0.037-0.048,3.777-4.844,2.228-9.524c-0.106-0.319,0.067-0.664,0.387-0.77
			c0.318-0.105,0.664,0.067,0.77,0.387c1.754,5.298-2.259,10.447-2.43,10.664C281.863,157.462,281.842,157.479,281.822,157.498z"/>
		<g>
			<path class="st22" d="M263.189,188.315l-12.511-12.509c-0.629-0.631-0.629-1.657,0-2.287l19.8-19.799
				c0.576-0.576,1.68-1.027,2.515-1.027l11.316,0.338c0.885,0.027,1.628,0.769,1.654,1.654l0.337,11.248
				c0.025,0.833-0.434,1.992-1.025,2.583l-19.799,19.798c-0.305,0.305-0.711,0.473-1.144,0.473
				C263.9,188.788,263.493,188.62,263.189,188.315z M270.737,153.979l-19.8,19.798c-0.487,0.488-0.487,1.282,0,1.771l12.511,12.509
				c0.47,0.47,1.3,0.47,1.77,0l19.8-19.798c0.519-0.521,0.94-1.58,0.917-2.314l-0.337-11.248c-0.02-0.696-0.603-1.279-1.3-1.299
				l-11.248-0.337l-0.057-0.001C272.257,153.06,271.244,153.473,270.737,153.979z"/>
		</g>
		<path class="st23" d="M250.808,175.677l12.511,12.509c0.557,0.558,1.471,0.558,2.028,0l19.799-19.798
			c0.558-0.558,0.996-1.66,0.972-2.449l-0.337-11.248c-0.024-0.789-0.688-1.453-1.477-1.477l-11.248-0.337
			c-0.789-0.024-1.89,0.413-2.448,0.972l-19.801,19.798C250.25,174.206,250.25,175.119,250.808,175.677z M279.321,157.323
			c0.649-0.65,1.703-0.649,2.351,0c0.649,0.649,0.649,1.701,0,2.351c-0.648,0.649-1.701,0.649-2.35,0
			C278.673,159.024,278.672,157.972,279.321,157.323z"/>
		<path class="st24" d="M278.808,160.189c-0.933-0.933-0.933-2.45-0.001-3.38c0.902-0.903,2.478-0.903,3.381,0
			c0.452,0.451,0.701,1.051,0.701,1.69c-0.001,0.638-0.25,1.239-0.701,1.69c-0.451,0.452-1.052,0.7-1.69,0.7
			C279.858,160.889,279.259,160.64,278.808,160.189z M279.313,157.315c-0.652,0.652-0.652,1.713,0.001,2.366
			c0.632,0.632,1.734,0.632,2.366,0c0.315-0.316,0.49-0.736,0.49-1.183s-0.174-0.867-0.49-1.183c-0.317-0.316-0.737-0.49-1.184-0.49
			C280.049,156.825,279.629,156.999,279.313,157.315z"/>
		<g>
			
				<rect x="260.665" y="158.109" transform="matrix(-0.7071 -0.7071 0.7071 -0.7071 336.629 481.3958)" class="st9" width="14.702" height="25.74"/>
		</g>
		<g>
			<path class="st15" d="M278.788,152.865c0.479,2.478,1.696,4.387,1.788,4.529c0.117,0.18,0.312,0.277,0.511,0.277
				c0.114,0,0.229-0.032,0.332-0.098c0.282-0.183,0.362-0.56,0.18-0.842c-0.02-0.031-1.075-1.692-1.543-3.854L278.788,152.865z"/>
		</g>
		<g>
			<path class="st17" d="M266.883,164.573l0.558,0.557l1.396-1.395l-0.464-0.465l0.578-0.578l0.464,0.465l0.805-0.805
				c0.784-0.785,1.981-0.717,2.858,0.16c0.718,0.719,0.73,1.646,0.73,1.646l-1.03,0.115c0,0-0.072-0.605-0.445-0.979
				c-0.398-0.398-0.924-0.391-1.27-0.045l-0.777,0.777l1.13,1.129l-0.578,0.578l-1.13-1.129l-1.369,1.369l1.423,1.422l0.731-0.73
				l0.744,0.744l-1.429,1.428l-3.596-3.596L266.883,164.573z"/>
			<path class="st17" d="M272.725,167.027c1.356-1.355,2.851-2.014,4.147-0.717c1.289,1.289,0.631,2.783-0.726,4.139
				c-1.355,1.355-2.863,2.027-4.152,0.738C270.698,169.89,271.37,168.382,272.725,167.027z M275.27,169.571
				c0.931-0.93,1.482-1.855,0.839-2.498c-0.651-0.652-1.569-0.094-2.5,0.838c-0.943,0.943-1.502,1.861-0.851,2.512
				C273.402,171.068,274.327,170.515,275.27,169.571z"/>
			<path class="st17" d="M266.703,168.911c1.13,1.129,1.135,2.873,0.011,3.996c-1.15,1.15-2.922,1.174-4.052,0.045
				c-1.128-1.129-1.112-2.906,0.04-4.059C263.825,167.771,265.575,167.782,266.703,168.911z M263.166,172.448
				c0.797,0.797,2.104,0.775,2.983-0.105c0.853-0.852,0.853-2.137,0.056-2.934s-2.087-0.803-2.938,0.049
				C262.385,170.339,262.369,171.652,263.166,172.448z"/>
			<path class="st17" d="M269.387,171.728l1.195,1.195c0.41,0.41,0.548,0.615,0.642,0.82c0.25,0.549,0.116,1.199-0.398,1.715
				c-0.498,0.498-1.194,0.643-1.76,0.355l-0.011,0.01c0,0-0.006,0.094-0.061,0.295l-0.687,2.348l-0.62-0.621l0.731-2.379
				l-0.836-0.836l-1.556,1.555l-0.549-0.549L269.387,171.728z M268.846,174.939c0.424,0.426,0.962,0.422,1.399-0.016
				c0.288-0.289,0.382-0.605,0.293-0.914c-0.051-0.16-0.144-0.322-0.448-0.627l-0.631-0.629l-1.4,1.4L268.846,174.939z"/>
			<path class="st17" d="M265.065,180.638c-0.509,0.51-1.099,0.777-1.77,0.801c-0.669,0.027-1.245-0.199-1.72-0.674
				c-0.649-0.65-0.864-1.529-0.644-2.637c-0.509,0.084-0.99,0.07-1.441-0.035c-0.454-0.105-0.815-0.295-1.086-0.566
				c-0.508-0.508-0.754-1.086-0.739-1.732c0.018-0.646,0.295-1.242,0.836-1.783c0.52-0.52,1.11-0.787,1.773-0.803
				c0.661-0.018,1.239,0.223,1.733,0.715c0.643,0.643,0.844,1.506,0.606,2.588c1.1-0.191,1.958,0.021,2.575,0.639
				c0.493,0.494,0.733,1.062,0.719,1.703C265.894,179.495,265.613,180.091,265.065,180.638z M259.483,176.56
				c0.179,0.18,0.409,0.285,0.688,0.311c0.279,0.027,0.633-0.016,1.058-0.133c0.115-0.404,0.162-0.75,0.139-1.035
				c-0.024-0.287-0.133-0.527-0.328-0.723c-0.209-0.211-0.454-0.307-0.738-0.295c-0.282,0.014-0.542,0.137-0.776,0.371
				c-0.228,0.227-0.348,0.479-0.359,0.756C259.153,176.085,259.259,176.335,259.483,176.56z M264.087,178.091
				c-0.336-0.336-0.918-0.402-1.747-0.199c-0.217,0.852-0.156,1.445,0.184,1.785c0.206,0.205,0.452,0.301,0.741,0.291
				c0.287-0.012,0.55-0.133,0.784-0.367c0.228-0.229,0.343-0.484,0.35-0.766C264.402,178.552,264.299,178.304,264.087,178.091z"/>
		</g>
	</g>
</g>
</svg>
