<?xml version="1.0" encoding="iso-8859-1"?>
<!-- Generator: Adobe Illustrator 19.1.0, SVG Export Plug-In . SVG Version: 6.00 Build 0)  -->
<svg version="1.1" id="step-1-author" xmlns="http://www.w3.org/2000/svg" xmlns:xlink="http://www.w3.org/1999/xlink" x="0px"
	 y="0px" viewBox="0 0 227.835 173.196" style="enable-background:new 0 0 227.835 173.196;" xml:space="preserve">
<style type="text/css">
	.st0{fill:none;stroke:#00ACD5;stroke-width:2.126;stroke-miterlimit:10;}
	.st1{fill:none;stroke:#00ACD5;stroke-width:2.126;stroke-linecap:round;stroke-miterlimit:10;}
	.st2{fill:#00ACD5;}
	.st3{fill:#2379A3;}
	.st4{fill:#FFFFFF;}
	.st5{fill:#D2ECFB;}
	.st6{fill:#0F303F;}
	.st7{fill:#F59A22;}
	.st8{fill:#504F4F;}
</style>
<g id="Step_THREE_2_">
	<g>
		<path class="st0" d="M167.488,83.093c0,0-66.082,13.229-128.785-8.034"/>
		<g>
			<line class="st1" x1="50.522" y1="67.049" x2="37.257" y2="74.831"/>
			<line class="st1" x1="37.257" y1="74.831" x2="44.681" y2="87.486"/>
		</g>
	</g>
	<g id="TIME">
		<circle class="st2" cx="103.096" cy="70.379" r="11.258"/>
		<path class="st3" d="M103.096,59.121c6.218,0,11.258,5.04,11.258,11.258c0,6.217-5.04,11.258-11.258,11.258"/>
		<circle class="st4" cx="103.096" cy="70.379" r="8.756"/>
		<path class="st5" d="M95.278,71.004c0-4.836,3.92-8.756,8.757-8.756c1.595,0,3.087,0.428,4.376,1.173
			c-1.474-1.127-3.315-1.799-5.314-1.799c-4.836,0-8.757,3.92-8.757,8.756c0,3.241,1.764,6.069,4.381,7.583
			C96.628,76.361,95.278,73.841,95.278,71.004z"/>
		<circle class="st6" cx="103.095" cy="70.379" r="1.563"/>
		<g>
			<g>
				<g>
					<g>
						<path class="st6" d="M106.819,64.055c-0.021,0-0.043-0.006-0.063-0.017c-0.06-0.035-0.081-0.112-0.046-0.173l0.242-0.417
							c0.035-0.06,0.112-0.081,0.173-0.046c0.06,0.035,0.081,0.112,0.046,0.173l-0.242,0.417
							C106.905,64.032,106.862,64.055,106.819,64.055L106.819,64.055z"/>
					</g>
					<g>
						<path class="st6" d="M99.131,77.373c-0.021,0-0.043-0.006-0.063-0.017c-0.061-0.035-0.082-0.112-0.047-0.172l0.24-0.418
							c0.035-0.061,0.112-0.081,0.172-0.047c0.061,0.035,0.082,0.112,0.047,0.172l-0.24,0.418
							C99.217,77.35,99.175,77.373,99.131,77.373L99.131,77.373z"/>
					</g>
					<g>
						<path class="st6" d="M109.962,74.469c-0.021,0-0.043-0.006-0.063-0.017l-0.414-0.239c-0.06-0.035-0.081-0.112-0.046-0.173
							c0.034-0.06,0.111-0.082,0.173-0.046l0.414,0.239c0.06,0.035,0.081,0.112,0.046,0.173
							C110.048,74.446,110.006,74.469,109.962,74.469L109.962,74.469z"/>
					</g>
					<g>
						<path class="st6" d="M96.648,66.781c-0.021,0-0.043-0.005-0.063-0.017l-0.419-0.24c-0.061-0.035-0.082-0.112-0.047-0.172
							c0.034-0.061,0.111-0.082,0.172-0.047l0.419,0.24c0.061,0.035,0.082,0.112,0.047,0.172
							C96.735,66.758,96.692,66.781,96.648,66.781L96.648,66.781z"/>
					</g>
				</g>
				<g>
					<g>
						<path class="st6" d="M99.373,64.055c-0.044,0-0.086-0.023-0.109-0.063l-0.24-0.417c-0.035-0.06-0.014-0.138,0.046-0.172
							c0.061-0.035,0.138-0.014,0.172,0.046l0.24,0.417c0.035,0.06,0.014,0.138-0.046,0.172
							C99.416,64.049,99.394,64.055,99.373,64.055L99.373,64.055z"/>
					</g>
					<g>
						<path class="st6" d="M107.065,77.373c-0.044,0-0.086-0.023-0.109-0.063l-0.243-0.418c-0.035-0.06-0.015-0.138,0.046-0.173
							c0.06-0.035,0.138-0.014,0.173,0.046l0.243,0.418c0.035,0.06,0.015,0.138-0.046,0.173
							C107.109,77.368,107.087,77.373,107.065,77.373L107.065,77.373z"/>
					</g>
					<g>
						<path class="st6" d="M96.23,74.469c-0.044,0-0.087-0.023-0.11-0.064c-0.035-0.06-0.014-0.138,0.047-0.172l0.419-0.239
							c0.061-0.036,0.138-0.013,0.172,0.047c0.035,0.06,0.014,0.138-0.047,0.172l-0.419,0.239
							C96.273,74.463,96.251,74.469,96.23,74.469L96.23,74.469z"/>
					</g>
					<g>
						<path class="st6" d="M109.548,66.781c-0.043,0-0.086-0.023-0.109-0.063c-0.035-0.06-0.014-0.138,0.046-0.173l0.414-0.24
							c0.059-0.034,0.137-0.015,0.173,0.046c0.035,0.06,0.014,0.138-0.046,0.173l-0.414,0.24
							C109.591,66.775,109.57,66.781,109.548,66.781L109.548,66.781z"/>
					</g>
				</g>
				<g>
					<g>
						<path class="st6" d="M95.649,70.504L95.649,70.504l-0.481,0c-0.07,0-0.126-0.057-0.126-0.127c0-0.069,0.057-0.126,0.126-0.126
							h0l0.481,0c0.07,0,0.126,0.057,0.126,0.127C95.775,70.447,95.718,70.504,95.649,70.504L95.649,70.504z"/>
					</g>
					<g>
						<path class="st6" d="M110.545,70.504c-0.069,0-0.126-0.056-0.126-0.126c0-0.07,0.056-0.127,0.126-0.127l0.484-0.002
							c0.074-0.012,0.127,0.056,0.127,0.126c0,0.07-0.056,0.127-0.126,0.127L110.545,70.504L110.545,70.504L110.545,70.504z"/>
					</g>
					<g>
						<path class="st6" d="M103.095,78.434L103.095,78.434c-0.07,0-0.127-0.057-0.126-0.127l0.003-0.483
							c0-0.069,0.057-0.126,0.126-0.126c0,0,0,0,0,0c0.07,0,0.126,0.057,0.126,0.127l-0.003,0.483
							C103.221,78.378,103.164,78.434,103.095,78.434L103.095,78.434z"/>
					</g>
					<g>
						<path class="st6" d="M103.096,63.056c-0.07,0-0.126-0.057-0.126-0.126V62.45c0-0.139,0.253-0.139,0.253,0v0.479
							C103.223,62.999,103.166,63.056,103.096,63.056L103.096,63.056z"/>
					</g>
				</g>
			</g>
			<g>
				<g>
					<path class="st6" d="M103.098,70.796c-0.23,0-0.417-0.187-0.417-0.417v-6.206c0-0.23,0.187-0.417,0.417-0.417
						s0.417,0.187,0.417,0.417v6.206C103.515,70.609,103.328,70.796,103.098,70.796L103.098,70.796z"/>
				</g>
				<g>
					<path class="st6" d="M100.381,73.512c-0.107,0-0.213-0.041-0.295-0.122c-0.163-0.163-0.163-0.427,0-0.59l2.609-2.61
						c0.163-0.163,0.427-0.163,0.59,0c0.163,0.163,0.163,0.427,0,0.59l-2.609,2.61C100.594,73.471,100.488,73.512,100.381,73.512
						L100.381,73.512z"/>
				</g>
			</g>
		</g>
		<circle class="st4" cx="103.096" cy="70.379" r="0.964"/>
		<circle class="st7" cx="103.096" cy="70.379" r="0.478"/>
		<g>
			<path class="st7" d="M103.098,70.587c-0.09,0-0.172-0.058-0.199-0.148c-0.033-0.11,0.028-0.226,0.139-0.26l5.411-1.635
				c0.11-0.034,0.226,0.029,0.26,0.139c0.033,0.11-0.029,0.226-0.139,0.26l-5.411,1.634
				C103.138,70.584,103.118,70.587,103.098,70.587L103.098,70.587z"/>
		</g>
	</g>
	<g>
		<path class="st8" d="M84.388,99.732v0.624c0,0.624,0.803,0.995,1.691,0.995c0.971,0,1.679-0.455,1.679-1.295
			c0-0.983-0.996-1.308-2.039-1.715c-1.115-0.42-2.255-0.899-2.255-2.399c0-1.595,1.283-2.278,2.71-2.278
			c1.271,0,2.567,0.479,2.567,1.403v0.995h-1.116v-0.587c0-0.492-0.755-0.756-1.451-0.756c-0.827,0-1.487,0.384-1.487,1.163
			c0,0.899,0.852,1.199,1.799,1.56c1.248,0.468,2.482,0.947,2.482,2.519c0,1.619-1.319,2.458-2.89,2.458
			c-1.319,0-2.794-0.587-2.794-1.799v-0.888H84.388z"/>
		<path class="st8" d="M90.58,103.774v-6.404c0-0.18-0.096-0.264-0.264-0.264h-0.744v-0.899h1.343c0.54,0,0.744,0.239,0.744,0.6
			v0.048c0,0.191-0.024,0.348-0.024,0.348h0.024c0,0,0.504-1.14,2.039-1.14c1.631,0,2.663,1.296,2.663,3.179
			c0,1.931-1.164,3.178-2.747,3.178c-1.332,0-1.883-1.031-1.883-1.031h-0.024c0,0,0.036,0.216,0.036,0.528v1.858h0.959v0.899h-3.07
			v-0.899H90.58z M93.434,101.411c0.959,0,1.751-0.78,1.751-2.159c0-1.319-0.708-2.171-1.727-2.171c-0.9,0-1.739,0.636-1.739,2.183
			C91.719,100.344,92.307,101.411,93.434,101.411z"/>
		<path class="st8" d="M100.094,96.062c1.727,0,2.627,1.271,2.627,2.843c0,0.156-0.036,0.443-0.036,0.443h-4.438
			c0.072,1.344,1.02,2.063,2.099,2.063c1.056,0,1.811-0.684,1.811-0.684l0.48,0.852c0,0-0.912,0.839-2.363,0.839
			c-1.907,0-3.214-1.379-3.214-3.178C97.06,97.31,98.367,96.062,100.094,96.062z M101.521,98.605
			c-0.036-1.067-0.684-1.619-1.451-1.619c-0.887,0-1.607,0.6-1.775,1.619H101.521z"/>
		<path class="st8" d="M106.454,96.062c1.727,0,2.627,1.271,2.627,2.843c0,0.156-0.036,0.443-0.036,0.443h-4.438
			c0.072,1.344,1.02,2.063,2.099,2.063c1.056,0,1.811-0.684,1.811-0.684l0.48,0.852c0,0-0.912,0.839-2.363,0.839
			c-1.907,0-3.214-1.379-3.214-3.178C103.42,97.31,104.727,96.062,106.454,96.062z M107.881,98.605
			c-0.036-1.067-0.684-1.619-1.451-1.619c-0.887,0-1.607,0.6-1.775,1.619H107.881z"/>
		<path class="st8" d="M112.55,96.062c1.379,0,1.871,1.02,1.871,1.02h0.024c0,0-0.036-0.191-0.036-0.455v-1.919h-1.007v-0.9h2.171
			v7.305c0,0.18,0.096,0.264,0.264,0.264h0.612v0.899h-1.211c-0.54,0-0.755-0.264-0.755-0.659v-0.084
			c0-0.204,0.036-0.324,0.036-0.324h-0.024c0,0-0.492,1.211-2.051,1.211c-1.631,0-2.65-1.295-2.65-3.178
			C109.792,97.31,110.919,96.062,112.55,96.062z M112.694,101.411c0.899,0,1.751-0.647,1.751-2.159c0-1.115-0.564-2.171-1.715-2.171
			c-0.971,0-1.751,0.78-1.751,2.159C110.979,100.56,111.687,101.411,112.694,101.411z"/>
		<path class="st8" d="M118.095,103.821c0.516,0,0.912-0.359,1.116-0.839l0.252-0.6l-2.123-5.277h-0.768v-0.899h2.771v0.899h-0.804
			l1.355,3.609c0.084,0.265,0.108,0.528,0.108,0.528h0.036c0,0,0.048-0.264,0.144-0.528l1.343-3.609h-0.779v-0.899h2.687v0.899
			h-0.756l-2.398,6.129c-0.408,1.031-1.199,1.559-2.135,1.559c-0.78,0-1.308-0.384-1.308-0.384l0.396-0.875
			C117.232,103.534,117.579,103.821,118.095,103.821z"/>
		<path class="st8" d="M70.035,107.719h0.874v2.719c0,0.631,0.126,1.135,0.855,1.135c0.927,0,1.477-0.819,1.477-1.72v-2.134h0.873
			v4.556h-0.846v-0.604c0-0.188,0.018-0.333,0.018-0.333h-0.018c-0.189,0.45-0.783,1.045-1.674,1.045
			c-1.026,0-1.558-0.541-1.558-1.747V107.719z"/>
		<path class="st8" d="M75.255,107.719h0.801v0.388c0,0.18-0.018,0.333-0.018,0.333h0.018c0,0,0.387-0.828,1.531-0.828
			c1.224,0,1.999,0.972,1.999,2.386c0,1.449-0.874,2.386-2.062,2.386c-1,0-1.396-0.748-1.396-0.748H76.11
			c0,0,0.018,0.162,0.018,0.396v2.044h-0.874V107.719z M77.389,111.635c0.72,0,1.314-0.594,1.314-1.629
			c0-0.99-0.531-1.63-1.288-1.63c-0.684,0-1.314,0.478-1.314,1.639C76.101,110.825,76.551,111.635,77.389,111.635z"/>
		<path class="st8" d="M82.707,108.484h-0.594v-0.702h0.621v-1.314h0.846v1.314h1.098v0.702H83.58v2.025
			c0,0.909,0.639,1.026,0.972,1.026c0.126,0,0.207-0.018,0.207-0.018v0.773c0,0-0.126,0.019-0.306,0.019
			c-0.585,0-1.747-0.18-1.747-1.701V108.484z"/>
		<path class="st8" d="M87.639,107.611c1.36,0,2.458,0.999,2.458,2.376c0,1.387-1.098,2.396-2.458,2.396
			c-1.359,0-2.458-1.009-2.458-2.396C85.182,108.61,86.28,107.611,87.639,107.611z M87.639,111.626c0.864,0,1.567-0.684,1.567-1.639
			c0-0.945-0.703-1.62-1.567-1.62c-0.855,0-1.566,0.675-1.566,1.62C86.073,110.942,86.784,111.626,87.639,111.626z"/>
		<path class="st8" d="M95.118,107.611c1.36,0,2.458,0.999,2.458,2.376c0,1.387-1.098,2.396-2.458,2.396
			c-1.359,0-2.458-1.009-2.458-2.396C92.66,108.61,93.758,107.611,95.118,107.611z M95.118,111.626c0.864,0,1.567-0.684,1.567-1.639
			c0-0.945-0.703-1.62-1.567-1.62c-0.855,0-1.566,0.675-1.566,1.62C93.551,110.942,94.263,111.626,95.118,111.626z"/>
		<path class="st8" d="M98.384,107.719h0.846v0.604c0,0.18-0.018,0.333-0.018,0.333h0.018c0.18-0.396,0.72-1.044,1.711-1.044
			c1.071,0,1.566,0.585,1.566,1.746v2.917h-0.874v-2.719c0-0.64-0.135-1.144-0.864-1.144c-0.693,0-1.251,0.459-1.44,1.116
			c-0.054,0.181-0.072,0.388-0.072,0.612v2.134h-0.874V107.719z"/>
		<path class="st8" d="M105.549,107.611c1.287,0,1.971,0.954,1.971,2.134c0,0.116-0.027,0.378-0.027,0.378h-3.322
			c0.045,0.999,0.756,1.503,1.566,1.503c0.783,0,1.35-0.531,1.35-0.531l0.36,0.64c0,0-0.675,0.648-1.765,0.648
			c-1.431,0-2.413-1.036-2.413-2.386C103.271,108.547,104.252,107.611,105.549,107.611z M106.629,109.466
			c-0.027-0.783-0.513-1.161-1.098-1.161c-0.667,0-1.207,0.414-1.333,1.161H106.629z"/>
		<path class="st8" d="M110.444,107.719h0.846v0.604c0,0.18-0.018,0.333-0.018,0.333h0.018c0.216-0.531,0.855-1.044,1.567-1.044
			c0.765,0,1.215,0.351,1.368,1.035h0.018c0.252-0.549,0.882-1.035,1.621-1.035c1.026,0,1.503,0.585,1.503,1.746v2.917h-0.874
			v-2.728c0-0.64-0.126-1.144-0.81-1.144c-0.639,0-1.116,0.54-1.278,1.161c-0.045,0.189-0.063,0.396-0.063,0.63v2.08h-0.874v-2.728
			c0-0.595-0.09-1.144-0.792-1.144c-0.667,0-1.134,0.549-1.306,1.197c-0.045,0.18-0.054,0.387-0.054,0.594v2.08h-0.874V107.719z"/>
		<path class="st8" d="M120.57,107.611c1.359,0,2.458,0.999,2.458,2.376c0,1.387-1.098,2.396-2.458,2.396
			c-1.36,0-2.458-1.009-2.458-2.396C118.112,108.61,119.21,107.611,120.57,107.611z M120.57,111.626
			c0.864,0,1.566-0.684,1.566-1.639c0-0.945-0.702-1.62-1.566-1.62c-0.855,0-1.567,0.675-1.567,1.62
			C119.003,110.942,119.714,111.626,120.57,111.626z"/>
		<path class="st8" d="M123.835,107.719h0.846v0.604c0,0.18-0.018,0.333-0.018,0.333h0.018c0.18-0.396,0.72-1.044,1.71-1.044
			c1.072,0,1.567,0.585,1.567,1.746v2.917h-0.874v-2.719c0-0.64-0.135-1.144-0.864-1.144c-0.693,0-1.251,0.459-1.44,1.116
			c-0.054,0.181-0.072,0.388-0.072,0.612v2.134h-0.874V107.719z"/>
		<path class="st8" d="M129.226,108.484h-0.594v-0.702h0.621v-1.314h0.846v1.314h1.098v0.702H130.1v2.025
			c0,0.909,0.639,1.026,0.972,1.026c0.126,0,0.207-0.018,0.207-0.018v0.773c0,0-0.126,0.019-0.306,0.019
			c-0.585,0-1.747-0.18-1.747-1.701V108.484z"/>
		<path class="st8" d="M132.034,105.919h0.874v2.331c0,0.216-0.018,0.378-0.018,0.378h0.018c0.198-0.44,0.774-1.017,1.684-1.017
			c1.071,0,1.566,0.585,1.566,1.746v2.917h-0.874v-2.719c0-0.64-0.135-1.144-0.864-1.144c-0.684,0-1.251,0.469-1.44,1.125
			c-0.054,0.181-0.072,0.388-0.072,0.604v2.134h-0.874V105.919z"/>
	</g>
	<g id="NUME_25_">
		<circle class="st2" cx="175.578" cy="81.549" r="15"/>
		<g>
			<path class="st4" d="M178.043,78.991c0,0.668-0.202,1.236-0.607,1.705s-0.975,0.791-1.707,0.967v0.045
				c0.865,0.107,1.519,0.369,1.963,0.787s0.667,0.98,0.667,1.688c0,1.031-0.374,1.832-1.12,2.406
				c-0.748,0.574-1.814,0.861-3.201,0.861c-1.162,0-2.192-0.193-3.091-0.578v-1.928c0.415,0.211,0.872,0.381,1.37,0.514
				c0.498,0.131,0.99,0.197,1.479,0.197c0.748,0,1.299-0.127,1.656-0.381c0.355-0.254,0.534-0.662,0.534-1.223
				c0-0.504-0.205-0.859-0.615-1.07c-0.41-0.209-1.064-0.314-1.963-0.314h-0.813v-1.736h0.828c0.83,0,1.437-0.107,1.82-0.326
				c0.383-0.217,0.574-0.588,0.574-1.115c0-0.811-0.508-1.217-1.523-1.217c-0.352,0-0.709,0.059-1.072,0.176
				c-0.364,0.117-0.769,0.32-1.213,0.607l-1.047-1.559c0.977-0.703,2.141-1.055,3.494-1.055c1.107,0,1.983,0.225,2.625,0.674
				C177.723,77.566,178.043,78.191,178.043,78.991z"/>
		</g>
	</g>
</g>
</svg>
